<svg width="1201" height="284" viewBox="0 0 1201 284" fill="none" xmlns="http://www.w3.org/2000/svg">
<path d="M376.077 78.6486C340.722 78.6486 316.532 106.016 316.532 141.621C316.532 177.491 339.127 204.327 376.077 204.327C388.305 205.125 400.799 201.67 410.634 194.231C420.736 186.791 427.647 176.163 430.837 164.206H402.659C400.533 168.989 396.811 172.974 392.292 175.897C387.773 178.554 382.457 179.882 377.406 179.617C359.596 179.617 349.76 170.051 348.697 149.326H432.964C435.09 112.659 415.951 78.6486 376.077 78.6486ZM348.697 128.867C348.697 125.413 349.494 122.224 350.823 119.036C352.152 115.847 354.013 113.19 356.406 110.799C358.798 108.408 361.456 106.548 364.646 105.219C367.836 103.891 371.026 103.359 374.482 103.359H375.545C390.963 103.359 397.875 112.128 401.065 128.867H348.697ZM515.901 78.6486C508.724 78.6486 501.813 80.2429 495.699 83.9628C489.319 87.4169 484.268 92.4653 480.281 98.5766H479.217V82.1028H448.913V201.405H481.078V138.432C481.078 114.253 488.256 104.156 505.534 104.156C520.421 104.156 526.003 113.722 526.003 133.384V200.608H558.168V127.273C558.168 97.7795 549.661 77.8515 515.37 77.8515L515.901 78.6486ZM663.435 96.4509H662.903C659.182 90.8711 653.865 86.0884 648.017 82.8999C641.903 79.7115 635.258 78.3829 628.612 78.6486C594.32 78.6486 577.042 108.408 577.042 140.558C577.042 172.708 594.054 204.327 629.144 204.327C636.055 204.859 643.232 203.265 649.346 200.076C655.46 196.888 660.777 191.839 664.498 185.994H665.03V201.139H695.334V36.1357H663.169L663.435 96.4509ZM636.852 179.617C616.916 179.617 608.675 159.955 608.675 141.355C608.675 122.756 615.852 103.094 636.852 103.094C657.853 103.094 664.233 121.693 664.233 141.089C664.233 160.752 658.119 179.882 636.852 179.617ZM772.424 78.6486C737.069 78.6486 712.879 106.016 712.879 141.887C712.879 177.757 735.474 204.593 772.424 204.593C784.652 205.39 797.146 201.936 806.981 194.496C817.083 187.057 823.994 176.428 827.184 164.472H799.007C796.88 169.254 793.158 173.24 788.639 176.163C784.12 179.085 778.804 180.148 773.753 179.883C755.943 179.883 745.841 170.317 745.044 149.592H829.045C830.906 112.925 811.766 78.9143 772.424 78.6486ZM744.778 128.867C744.778 121.959 747.702 115.582 752.487 110.799C754.879 108.408 757.538 106.548 760.728 105.485C763.917 104.156 767.107 103.625 770.297 103.625H771.361C787.044 103.625 793.956 112.393 796.88 128.867H744.778ZM1036.66 129.664C1018.31 125.147 1000.24 123.553 1000.24 111.862C1000.24 102.031 1010.87 100.702 1018.05 100.702C1029.48 100.702 1039.05 104.156 1039.85 117.176H1070.15C1067.49 87.9483 1044.36 78.9144 1018.58 78.9144C993.06 78.9144 967.806 87.1512 967.806 117.176C967.806 138.167 986.414 144.809 1004.76 149.061C1027.88 154.109 1041.17 157.298 1041.17 167.394C1041.17 178.82 1029.48 182.805 1020.17 182.805C1007.68 182.805 995.718 176.96 995.718 162.612H965.414C966.743 194.231 993.06 204.593 1020.17 204.593C1047.02 204.593 1073.34 194.496 1073.34 163.409C1073.34 141.355 1055.26 134.447 1036.39 129.93L1036.66 129.664ZM1195.89 174.834V112.659C1195.89 83.9628 1167.97 78.6486 1144.85 78.6486C1118.53 78.6486 1091.95 87.9483 1090.09 118.504H1121.99C1123.05 105.751 1131.02 100.436 1143.25 100.436C1155.48 100.436 1163.72 102.562 1163.72 116.91C1163.72 131.258 1145.38 129.664 1125.97 132.587C1106.3 135.51 1086.1 141.887 1086.1 168.723C1086.1 193.434 1103.64 204.593 1125.97 204.593C1133.15 204.859 1140.33 203.796 1147.24 201.139C1153.88 198.482 1160.26 194.496 1165.32 189.448C1165.58 193.433 1166.38 197.153 1167.44 200.873H1200.4C1196.95 192.636 1195.62 183.602 1196.15 174.568L1195.89 174.834ZM1163.99 154.906C1163.99 162.08 1163.19 182.274 1137.94 182.274C1127.57 182.274 1118.26 179.351 1118.26 167.129C1118.26 154.906 1127.3 151.718 1137.14 149.592C1146.97 147.466 1158.4 147.466 1163.72 142.684V154.906H1163.99ZM847.919 201.405H879.818V36.4015H847.919V201.405ZM899.755 169.254L922.35 201.405H961.958L919.692 141.887H880.084L899.755 169.254ZM922.35 82.1028L879.818 141.887H919.426L961.692 82.1028H922.35Z" fill="#484648"/>
<path d="M138.428 0C111.048 0 84.1993 8.23687 61.6041 23.9135C38.743 39.5901 21.1985 61.6437 10.8313 87.4171C0.198203 113.191 -2.72588 141.621 2.59064 169.254C7.90717 196.622 20.9327 221.864 40.338 241.526C54.6926 256.406 72.2371 267.566 91.6425 274.74C111.048 281.914 131.516 284.305 151.985 282.445C172.454 280.319 192.125 273.677 209.669 263.049C227.214 252.155 242.1 237.541 253.265 220.27C271.075 192.902 279.05 160.486 275.86 127.804C272.67 95.3883 258.581 64.8322 235.986 41.4501C223.227 28.4305 208.074 18.068 191.062 10.8939C174.846 3.71985 156.77 0 138.428 0ZM207.277 202.468H69.8447C68.2497 202.468 66.6548 202.202 65.0598 201.405C63.4649 200.873 62.1357 199.811 61.0724 198.748C58.68 196.356 57.3509 192.902 57.3509 189.714C57.3509 186.26 58.68 183.071 61.0724 180.68C62.1357 179.617 63.7307 178.554 65.0598 178.023C66.6548 177.491 68.2497 176.96 69.8447 176.96H207.277C210.733 176.96 213.657 178.288 216.049 180.68C218.442 183.071 219.771 186.525 219.771 189.714C219.771 193.168 218.442 196.356 216.049 198.748C213.657 201.139 210.733 202.468 207.277 202.468ZM217.644 126.476C216.847 127.804 215.518 129.133 214.188 130.196C212.859 131.259 211.264 131.79 209.669 132.056C208.074 132.321 206.479 132.321 204.884 132.056C203.29 131.79 201.96 130.993 200.631 130.196L138.96 87.9485L77.022 130.196C75.6929 131.259 74.0979 131.79 72.503 132.056C70.908 132.321 69.3131 132.321 67.7181 132.056C64.2624 131.259 61.3383 129.399 59.4775 126.476C58.68 125.147 57.8825 123.553 57.6167 121.693C57.3509 120.099 57.3509 118.239 57.6167 116.645C57.8825 115.051 58.68 113.456 59.4775 111.862C60.275 110.534 61.6041 109.205 62.9332 108.408L131.782 61.6437C133.909 60.3152 136.301 59.518 138.694 59.518C141.086 59.518 143.479 60.3152 145.605 61.6437L214.188 108.674C215.518 109.471 216.847 110.799 217.644 112.128C218.442 113.456 219.239 115.051 219.505 116.645C219.771 118.239 219.771 120.099 219.505 121.693C219.239 123.287 218.707 124.882 217.644 126.476Z" fill="#FF314E"/>
</svg>
