<svg width="930" height="452" viewBox="0 0 930 452" fill="none" xmlns="http://www.w3.org/2000/svg">
<rect x="159.273" y="247.114" width="603.779" height="131.831" transform="rotate(-3.83404 159.273 247.114)" fill="#F87666"/>
<path d="M0.648 269.924V258.908H56.808V269.924H32.238L35.1 267.008V329H22.356V267.008L25.218 269.924H0.648ZM103.383 329V298.328C103.383 294.44 102.447 291.506 100.575 289.526C98.703 287.546 96.255 286.556 93.231 286.556C90.675 286.556 88.407 287.258 86.427 288.662C84.483 290.066 82.953 292.19 81.837 295.034C80.721 297.842 80.163 301.352 80.163 305.564H75.951C75.951 298.76 76.797 293.108 78.489 288.608C80.181 284.072 82.575 280.688 85.671 278.456C88.767 276.224 92.403 275.108 96.579 275.108C100.899 275.108 104.499 276.08 107.379 278.024C110.295 279.932 112.473 282.632 113.913 286.124C115.389 289.616 116.127 293.684 116.127 298.328V329H103.383ZM67.419 329V254.912H80.163V329H67.419ZM154.256 330.512C149.792 330.512 145.706 329.36 141.998 327.056C138.29 324.752 135.32 321.53 133.088 317.39C130.856 313.214 129.74 308.336 129.74 302.756C129.74 296.996 130.838 292.046 133.034 287.906C135.266 283.766 138.236 280.598 141.944 278.402C145.652 276.206 149.756 275.108 154.256 275.108C158.432 275.108 162.032 275.954 165.056 277.646C168.116 279.302 170.564 281.57 172.4 284.45C174.272 287.294 175.532 290.516 176.18 294.116C176.828 297.716 176.864 301.424 176.288 305.24H139.892V298.328H167.27L164.786 299.948C164.894 298.256 164.804 296.546 164.516 294.818C164.264 293.09 163.76 291.506 163.004 290.066C162.248 288.626 161.168 287.474 159.764 286.61C158.396 285.71 156.632 285.26 154.472 285.26C151.88 285.26 149.684 285.908 147.884 287.204C146.084 288.5 144.716 290.264 143.78 292.496C142.844 294.728 142.376 297.248 142.376 300.056V305.132C142.376 308.084 142.808 310.694 143.672 312.962C144.572 315.23 145.886 317.012 147.614 318.308C149.378 319.604 151.592 320.252 154.256 320.252C156.74 320.252 158.828 319.676 160.52 318.524C162.212 317.372 163.292 315.644 163.76 313.34H176.612C176.072 316.724 174.794 319.712 172.778 322.304C170.798 324.86 168.224 326.876 165.056 328.352C161.888 329.792 158.288 330.512 154.256 330.512ZM191.654 329V258.908H216.386C224.27 258.908 230.408 260.852 234.8 264.74C239.228 268.628 241.442 274.136 241.442 281.264C241.442 288.32 239.228 293.792 234.8 297.68C230.408 301.568 224.27 303.512 216.386 303.512H204.506V329H191.654ZM204.506 292.388H216.386C220.346 292.388 223.334 291.344 225.35 289.256C227.366 287.168 228.374 284.504 228.374 281.264C228.374 277.952 227.366 275.234 225.35 273.11C223.334 270.986 220.346 269.924 216.386 269.924H204.506V292.388ZM254.626 329V276.404H267.37V329H254.626ZM264.238 305.996C264.238 299.12 265.012 293.432 266.56 288.932C268.108 284.432 270.178 281.102 272.77 278.942C275.398 276.746 278.314 275.648 281.518 275.648C282.382 275.648 283.192 275.702 283.948 275.81C284.74 275.918 285.514 276.08 286.27 276.296L286.054 289.04C285.118 288.824 284.11 288.644 283.03 288.5C281.95 288.356 280.978 288.284 280.114 288.284C277.306 288.284 274.948 288.968 273.04 290.336C271.168 291.668 269.746 293.648 268.774 296.276C267.838 298.904 267.37 302.144 267.37 305.996H264.238ZM317.652 330.512C312.864 330.512 308.526 329.486 304.638 327.434C300.786 325.382 297.726 322.322 295.458 318.254C293.19 314.15 292.056 309.02 292.056 302.864C292.056 296.6 293.19 291.416 295.458 287.312C297.726 283.208 300.786 280.148 304.638 278.132C308.526 276.116 312.864 275.108 317.652 275.108C322.368 275.108 326.634 276.116 330.45 278.132C334.302 280.148 337.362 283.208 339.63 287.312C341.898 291.416 343.032 296.6 343.032 302.864C343.032 309.02 341.898 314.15 339.63 318.254C337.362 322.322 334.302 325.382 330.45 327.434C326.634 329.486 322.368 330.512 317.652 330.512ZM317.22 319.388C319.74 319.388 321.972 318.776 323.916 317.552C325.896 316.292 327.444 314.438 328.56 311.99C329.712 309.542 330.288 306.5 330.288 302.864C330.288 297.32 329.19 293.144 326.994 290.336C324.834 287.528 321.864 286.124 318.084 286.124C315.528 286.124 313.26 286.754 311.28 288.014C309.3 289.238 307.734 291.092 306.582 293.576C305.466 296.06 304.908 299.156 304.908 302.864C304.908 308.336 306.006 312.458 308.202 315.23C310.434 318.002 313.44 319.388 317.22 319.388ZM377.528 330.512C373.136 330.512 369.122 329.36 365.486 327.056C361.886 324.716 359.006 321.458 356.846 317.282C354.722 313.07 353.66 308.156 353.66 302.54C353.66 296.996 354.686 292.172 356.738 288.068C358.826 283.928 361.598 280.742 365.054 278.51C368.546 276.242 372.416 275.108 376.664 275.108C380.552 275.108 383.918 276.044 386.762 277.916C389.606 279.752 391.784 282.488 393.296 286.124C394.808 289.76 395.564 294.224 395.564 299.516H391.568C391.568 296.78 391.01 294.458 389.894 292.55C388.778 290.606 387.302 289.13 385.466 288.122C383.666 287.078 381.704 286.556 379.58 286.556C377.024 286.556 374.756 287.222 372.776 288.554C370.832 289.886 369.302 291.758 368.186 294.17C367.07 296.546 366.512 299.336 366.512 302.54C366.512 305.852 367.07 308.732 368.186 311.18C369.302 313.628 370.832 315.536 372.776 316.904C374.756 318.272 376.988 318.956 379.472 318.956C381.488 318.956 383.414 318.416 385.25 317.336C387.122 316.22 388.634 314.672 389.786 312.692C390.974 310.712 391.568 308.408 391.568 305.78H395.564C395.564 311.288 394.736 315.878 393.08 319.55C391.46 323.186 389.282 325.922 386.546 327.758C383.81 329.594 380.804 330.512 377.528 330.512ZM393.944 329L391.568 316.04V254.912H404.42V329H393.944ZM459.42 276.404H472.164V329H459.42V276.404ZM423.456 276.404H436.2V308.588C436.2 312.008 437.046 314.582 438.738 316.31C440.43 318.002 442.752 318.848 445.704 318.848C448.224 318.848 450.51 318.2 452.562 316.904C454.65 315.572 456.306 313.628 457.53 311.072C458.79 308.48 459.42 305.276 459.42 301.46H462.876C462.876 307.868 462.048 313.178 460.392 317.39C458.736 321.602 456.45 324.752 453.534 326.84C450.618 328.928 447.252 329.972 443.436 329.972C439.692 329.972 436.308 329.306 433.284 327.974C430.26 326.642 427.866 324.5 426.102 321.548C424.338 318.596 423.456 314.708 423.456 309.884V276.404ZM512.119 330.512C507.727 330.512 503.641 329.378 499.861 327.11C496.117 324.806 493.075 321.584 490.735 317.444C488.431 313.268 487.279 308.372 487.279 302.756C487.279 296.816 488.431 291.794 490.735 287.69C493.075 283.55 496.117 280.418 499.861 278.294C503.641 276.17 507.727 275.108 512.119 275.108C515.539 275.108 518.545 275.666 521.137 276.782C523.765 277.862 525.997 279.338 527.833 281.21C529.669 283.046 531.109 285.098 532.153 287.366C533.197 289.634 533.863 291.92 534.151 294.224L521.299 294.548C520.723 292.244 519.643 290.336 518.059 288.824C516.511 287.312 514.495 286.556 512.011 286.556C509.959 286.556 508.033 287.132 506.233 288.284C504.433 289.4 502.957 291.146 501.805 293.522C500.689 295.898 500.131 298.976 500.131 302.756C500.131 306.356 500.653 309.362 501.697 311.774C502.777 314.15 504.217 315.95 506.017 317.174C507.817 318.362 509.815 318.956 512.011 318.956C515.251 318.956 517.609 318.182 519.085 316.634C520.561 315.05 521.299 312.944 521.299 310.316H534.151C534.151 314.024 533.305 317.408 531.613 320.468C529.921 323.528 527.437 325.976 524.161 327.812C520.885 329.612 516.871 330.512 512.119 330.512ZM567.123 330.512C564.027 330.512 561.183 329.936 558.591 328.784C556.035 327.632 553.983 325.868 552.435 323.492C550.923 321.116 550.167 318.092 550.167 314.42V262.688H562.911V313.988C562.911 318.308 564.963 320.468 569.067 320.468C570.327 320.468 571.587 320.324 572.847 320.036C574.107 319.748 575.547 319.316 577.167 318.74L579.003 327.704C576.987 328.496 575.025 329.162 573.117 329.702C571.209 330.242 569.211 330.512 567.123 330.512ZM542.823 285.044V276.62H577.167V285.044H542.823ZM591.697 329V258.908H616.429C624.313 258.908 630.451 260.852 634.843 264.74C639.271 268.628 641.485 274.136 641.485 281.264C641.485 288.32 639.271 293.792 634.843 297.68C630.451 301.568 624.313 303.512 616.429 303.512H604.549V329H591.697ZM604.549 292.388H616.429C620.389 292.388 623.377 291.344 625.393 289.256C627.409 287.168 628.417 284.504 628.417 281.264C628.417 277.952 627.409 275.234 625.393 273.11C623.377 270.986 620.389 269.924 616.429 269.924H604.549V292.388ZM674.217 330.512C669.753 330.512 665.667 329.36 661.959 327.056C658.251 324.752 655.281 321.53 653.049 317.39C650.817 313.214 649.701 308.336 649.701 302.756C649.701 296.996 650.799 292.046 652.995 287.906C655.227 283.766 658.197 280.598 661.905 278.402C665.613 276.206 669.717 275.108 674.217 275.108C678.393 275.108 681.993 275.954 685.017 277.646C688.077 279.302 690.525 281.57 692.361 284.45C694.233 287.294 695.493 290.516 696.141 294.116C696.789 297.716 696.825 301.424 696.249 305.24H659.853V298.328H687.231L684.747 299.948C684.855 298.256 684.765 296.546 684.477 294.818C684.225 293.09 683.721 291.506 682.965 290.066C682.209 288.626 681.129 287.474 679.725 286.61C678.357 285.71 676.593 285.26 674.433 285.26C671.841 285.26 669.645 285.908 667.845 287.204C666.045 288.5 664.677 290.264 663.741 292.496C662.805 294.728 662.337 297.248 662.337 300.056V305.132C662.337 308.084 662.769 310.694 663.633 312.962C664.533 315.23 665.847 317.012 667.575 318.308C669.339 319.604 671.553 320.252 674.217 320.252C676.701 320.252 678.789 319.676 680.481 318.524C682.173 317.372 683.253 315.644 683.721 313.34H696.573C696.033 316.724 694.755 319.712 692.739 322.304C690.759 324.86 688.185 326.876 685.017 328.352C681.849 329.792 678.249 330.512 674.217 330.512ZM711.939 329V276.404H724.683V329H711.939ZM721.551 305.996C721.551 299.12 722.325 293.432 723.873 288.932C725.421 284.432 727.491 281.102 730.083 278.942C732.711 276.746 735.627 275.648 738.831 275.648C739.695 275.648 740.505 275.702 741.261 275.81C742.053 275.918 742.827 276.08 743.583 276.296L743.367 289.04C742.431 288.824 741.423 288.644 740.343 288.5C739.263 288.356 738.291 288.284 737.427 288.284C734.619 288.284 732.261 288.968 730.353 290.336C728.481 291.668 727.059 293.648 726.087 296.276C725.151 298.904 724.683 302.144 724.683 305.996H721.551ZM773.885 330.512C768.845 330.512 764.507 329.828 760.871 328.46C757.271 327.056 754.499 325.058 752.555 322.466C750.611 319.838 749.621 316.688 749.585 313.016H761.357C761.465 315.608 762.491 317.498 764.435 318.686C766.379 319.874 769.025 320.468 772.373 320.468C774.209 320.468 775.829 320.198 777.233 319.658C778.673 319.118 779.789 318.38 780.581 317.444C781.373 316.508 781.769 315.464 781.769 314.312C781.769 312.836 781.229 311.684 780.149 310.856C779.105 309.992 777.413 309.2 775.073 308.48L763.625 304.376C759.521 302.9 756.371 300.956 754.175 298.544C751.979 296.132 750.881 293.252 750.881 289.904C750.881 285.476 752.879 281.912 756.875 279.212C760.907 276.476 766.289 275.108 773.021 275.108C779.717 275.108 784.883 276.584 788.519 279.536C792.191 282.452 794.081 286.16 794.189 290.66H782.201C782.021 288.932 781.193 287.564 779.717 286.556C778.241 285.548 776.009 285.044 773.021 285.044C770.321 285.044 768.197 285.602 766.649 286.718C765.137 287.798 764.381 289.076 764.381 290.552C764.381 293.036 766.505 294.908 770.753 296.168L783.173 300.812C787.205 302.18 790.337 303.944 792.569 306.104C794.801 308.264 795.917 311 795.917 314.312C795.917 317.084 794.981 319.712 793.109 322.196C791.273 324.644 788.699 326.642 785.387 328.19C782.075 329.738 778.241 330.512 773.885 330.512ZM831.918 330.512C827.13 330.512 822.792 329.486 818.904 327.434C815.052 325.382 811.992 322.322 809.724 318.254C807.456 314.15 806.322 309.02 806.322 302.864C806.322 296.6 807.456 291.416 809.724 287.312C811.992 283.208 815.052 280.148 818.904 278.132C822.792 276.116 827.13 275.108 831.918 275.108C836.634 275.108 840.9 276.116 844.716 278.132C848.568 280.148 851.628 283.208 853.896 287.312C856.164 291.416 857.298 296.6 857.298 302.864C857.298 309.02 856.164 314.15 853.896 318.254C851.628 322.322 848.568 325.382 844.716 327.434C840.9 329.486 836.634 330.512 831.918 330.512ZM831.486 319.388C834.006 319.388 836.238 318.776 838.182 317.552C840.162 316.292 841.71 314.438 842.826 311.99C843.978 309.542 844.554 306.5 844.554 302.864C844.554 297.32 843.456 293.144 841.26 290.336C839.1 287.528 836.13 286.124 832.35 286.124C829.794 286.124 827.526 286.754 825.546 288.014C823.566 289.238 822 291.092 820.848 293.576C819.732 296.06 819.174 299.156 819.174 302.864C819.174 308.336 820.272 312.458 822.468 315.23C824.7 318.002 827.706 319.388 831.486 319.388ZM908.426 329V298.328C908.426 294.44 907.49 291.506 905.618 289.526C903.746 287.546 901.298 286.556 898.274 286.556C895.718 286.556 893.45 287.258 891.47 288.662C889.526 290.066 887.996 292.19 886.88 295.034C885.764 297.842 885.206 301.352 885.206 305.564H880.994C880.994 298.76 881.84 293.108 883.532 288.608C885.224 284.072 887.618 280.688 890.714 278.456C893.81 276.224 897.446 275.108 901.622 275.108C905.942 275.108 909.542 276.08 912.422 278.024C915.338 279.932 917.516 282.632 918.956 286.124C920.432 289.616 921.17 293.684 921.17 298.328V329H908.426ZM872.462 329V276.62H883.586L885.206 286.988V329H872.462Z" fill="black"/>
<path d="M111.464 408.848H121.544C124.712 408.848 127.488 409.488 129.872 410.768C132.256 412.032 134.112 413.832 135.44 416.168C136.768 418.504 137.432 421.264 137.432 424.448C137.432 427.6 136.768 430.344 135.44 432.68C134.112 435 132.256 436.8 129.872 438.08C127.488 439.36 124.712 440 121.544 440H111.464V408.848ZM117.128 413.984V434.912H121.544C123.56 434.912 125.296 434.456 126.752 433.544C128.224 432.632 129.352 431.392 130.136 429.824C130.936 428.24 131.336 426.448 131.336 424.448C131.336 422.416 130.936 420.616 130.136 419.048C129.352 417.48 128.224 416.248 126.752 415.352C125.296 414.44 123.56 413.984 121.544 413.984H117.128ZM144.417 440V408.848H150.081V440H144.417ZM170.418 440.672C167.874 440.672 165.578 440 163.53 438.656C161.482 437.312 159.85 435.44 158.634 433.04C157.434 430.624 156.834 427.808 156.834 424.592C156.834 422.048 157.202 419.768 157.938 417.752C158.69 415.736 159.73 414.016 161.058 412.592C162.386 411.168 163.946 410.088 165.738 409.352C167.53 408.6 169.474 408.224 171.57 408.224C174.482 408.224 176.922 408.856 178.89 410.12C180.874 411.384 182.418 413.376 183.522 416.096L177.714 417.44C176.898 416.112 175.954 415.104 174.882 414.416C173.826 413.712 172.626 413.36 171.282 413.36C169.746 413.36 168.346 413.816 167.082 414.728C165.818 415.624 164.81 416.912 164.058 418.592C163.306 420.272 162.93 422.272 162.93 424.592C162.93 426.768 163.258 428.672 163.914 430.304C164.586 431.936 165.522 433.208 166.722 434.12C167.922 435.032 169.314 435.488 170.898 435.488C172.242 435.488 173.442 435.192 174.498 434.6C175.57 433.992 176.41 433.128 177.018 432.008C177.642 430.888 177.954 429.536 177.954 427.952H179.202C179.202 430.544 178.89 432.792 178.266 434.696C177.658 436.6 176.706 438.072 175.41 439.112C174.114 440.152 172.45 440.672 170.418 440.672ZM178.77 440L177.954 433.136V427.76L170.946 427.616V424.016H183.378V440H178.77ZM191.527 440V408.848H197.191V440H191.527ZM201.976 413.744V408.848H226.936V413.744H216.016L217.288 412.448V440H211.624V412.448L212.896 413.744H201.976ZM226.087 440L236.695 408.848H243.799L253.975 440H248.023L245.863 433.28H234.295L232.087 440H226.087ZM235.735 429.008H244.519L240.151 415.616L235.735 429.008ZM265.206 408.848V435.056H278.022V440H259.542V408.848H265.206ZM295.258 440V408.848H306.25C309.754 408.848 312.482 409.712 314.434 411.44C316.402 413.168 317.385 415.616 317.385 418.784C317.385 421.92 316.402 424.352 314.434 426.08C312.482 427.808 309.754 428.672 306.25 428.672H300.97V440H295.258ZM300.97 423.728H306.25C308.01 423.728 309.338 423.264 310.234 422.336C311.13 421.408 311.578 420.224 311.578 418.784C311.578 417.312 311.13 416.104 310.234 415.16C309.338 414.216 308.01 413.744 306.25 413.744H300.97V423.728ZM323.245 440V408.848H334.765C338.493 408.848 341.349 409.72 343.333 411.464C345.333 413.208 346.333 415.52 346.333 418.4C346.333 421.232 345.333 423.52 343.333 425.264C341.349 426.992 338.493 427.856 334.765 427.856H328.909V440H323.245ZM340.093 440L331.837 425.408H337.885L347.485 440H340.093ZM328.909 424.064H334.189C336.269 424.064 337.845 423.592 338.917 422.648C339.989 421.688 340.525 420.448 340.525 418.928C340.525 417.376 340.037 416.128 339.061 415.184C338.085 414.224 336.653 413.744 334.765 413.744H328.909V424.064ZM366.04 440.672C363.272 440.672 360.824 440.064 358.696 438.848C356.584 437.632 354.928 435.816 353.728 433.4C352.528 430.984 351.928 427.984 351.928 424.4C351.928 420.752 352.528 417.736 353.728 415.352C354.928 412.952 356.584 411.168 358.696 410C360.824 408.816 363.272 408.224 366.04 408.224C368.824 408.224 371.28 408.832 373.408 410.048C375.536 411.248 377.2 413.048 378.4 415.448C379.6 417.848 380.2 420.832 380.2 424.4C380.2 428.032 379.6 431.056 378.4 433.472C377.2 435.888 375.536 437.696 373.408 438.896C371.28 440.08 368.824 440.672 366.04 440.672ZM366.04 435.536C368.584 435.536 370.6 434.576 372.088 432.656C373.592 430.736 374.344 427.968 374.344 424.352C374.344 420.864 373.592 418.152 372.088 416.216C370.6 414.28 368.584 413.312 366.04 413.312C363.544 413.312 361.544 414.288 360.04 416.24C358.536 418.176 357.784 420.896 357.784 424.4C357.784 428 358.536 430.76 360.04 432.68C361.544 434.584 363.544 435.536 366.04 435.536ZM386.902 408.848H396.982C400.15 408.848 402.926 409.488 405.31 410.768C407.694 412.032 409.55 413.832 410.878 416.168C412.206 418.504 412.87 421.264 412.87 424.448C412.87 427.6 412.206 430.344 410.878 432.68C409.55 435 407.694 436.8 405.31 438.08C402.926 439.36 400.15 440 396.982 440H386.902V408.848ZM392.566 413.984V434.912H396.982C398.998 434.912 400.734 434.456 402.19 433.544C403.662 432.632 404.79 431.392 405.574 429.824C406.374 428.24 406.774 426.448 406.774 424.448C406.774 422.416 406.374 420.616 405.574 419.048C404.79 417.48 403.662 416.248 402.19 415.352C400.734 414.44 398.998 413.984 396.982 413.984H392.566ZM419.375 408.848H425.039V428.24C425.039 430.8 425.687 432.648 426.983 433.784C428.295 434.92 429.967 435.488 431.999 435.488C434.047 435.488 435.719 434.92 437.015 433.784C438.311 432.648 438.959 430.8 438.959 428.24V408.848H444.623V428.24C444.623 430.864 444.119 433.104 443.111 434.96C442.103 436.816 440.655 438.232 438.767 439.208C436.895 440.184 434.639 440.672 431.999 440.672C429.359 440.672 427.095 440.184 425.207 439.208C423.335 438.232 421.895 436.816 420.887 434.96C419.879 433.104 419.375 430.864 419.375 428.24V408.848ZM464.323 440.672C461.587 440.672 459.203 440.024 457.171 438.728C455.155 437.416 453.587 435.544 452.467 433.112C451.347 430.68 450.787 427.76 450.787 424.352C450.787 420.832 451.363 417.88 452.515 415.496C453.683 413.096 455.283 411.288 457.315 410.072C459.363 408.84 461.699 408.224 464.323 408.224C467.955 408.224 470.787 409.104 472.819 410.864C474.867 412.624 476.179 414.912 476.755 417.728L470.707 418.832C470.211 417.2 469.419 415.88 468.331 414.872C467.243 413.864 465.907 413.36 464.323 413.36C462.931 413.36 461.675 413.768 460.555 414.584C459.435 415.384 458.539 416.6 457.867 418.232C457.211 419.864 456.883 421.904 456.883 424.352C456.883 426.656 457.171 428.64 457.747 430.304C458.339 431.968 459.187 433.248 460.291 434.144C461.395 435.04 462.739 435.488 464.323 435.488C466.355 435.488 467.923 434.952 469.027 433.88C470.147 432.792 470.707 431.408 470.707 429.728H476.755C476.755 432.048 476.251 434.024 475.243 435.656C474.251 437.272 472.827 438.512 470.971 439.376C469.115 440.24 466.899 440.672 464.323 440.672ZM479.241 413.744V408.848H504.201V413.744H493.281L494.553 412.448V440H488.889V412.448L490.161 413.744H479.241ZM521.058 408.848H529.17L537.954 427.904H537.474L546.258 408.848H554.082V440H548.37V415.376H549.234L539.538 436.592H535.842L526.194 415.472H526.722V440H521.058V408.848ZM559.603 440L570.211 408.848H577.315L587.491 440H581.539L579.379 433.28H567.811L565.603 440H559.603ZM569.251 429.008H578.035L573.667 415.616L569.251 429.008ZM592.962 408.848H599.154L613.314 431.072H612.882V408.848H618.546V440H612.786L597.714 416.432H598.626V440H592.962V408.848ZM624.056 440L634.664 408.848H641.768L651.944 440H645.992L643.832 433.28H632.264L630.056 440H624.056ZM633.704 429.008H642.488L638.12 415.616L633.704 429.008ZM668.887 440.672C666.343 440.672 664.047 440 661.999 438.656C659.951 437.312 658.319 435.44 657.103 433.04C655.903 430.624 655.303 427.808 655.303 424.592C655.303 422.048 655.671 419.768 656.407 417.752C657.159 415.736 658.199 414.016 659.527 412.592C660.855 411.168 662.415 410.088 664.207 409.352C665.999 408.6 667.943 408.224 670.039 408.224C672.951 408.224 675.391 408.856 677.359 410.12C679.343 411.384 680.887 413.376 681.991 416.096L676.183 417.44C675.367 416.112 674.423 415.104 673.351 414.416C672.295 413.712 671.095 413.36 669.751 413.36C668.215 413.36 666.815 413.816 665.551 414.728C664.287 415.624 663.279 416.912 662.527 418.592C661.775 420.272 661.399 422.272 661.399 424.592C661.399 426.768 661.727 428.672 662.383 430.304C663.055 431.936 663.991 433.208 665.191 434.12C666.391 435.032 667.783 435.488 669.367 435.488C670.711 435.488 671.911 435.192 672.967 434.6C674.039 433.992 674.879 433.128 675.487 432.008C676.111 430.888 676.423 429.536 676.423 427.952H677.671C677.671 430.544 677.359 432.792 676.735 434.696C676.127 436.6 675.175 438.072 673.879 439.112C672.583 440.152 670.919 440.672 668.887 440.672ZM677.239 440L676.423 433.136V427.76L669.415 427.616V424.016H681.847V440H677.239ZM689.947 440V408.848H709.963V413.744H695.611V421.952H709.099V426.848H695.611V435.056H709.963V440H689.947ZM718.167 408.848H726.279L735.063 427.904H734.583L743.367 408.848H751.191V440H745.479V415.376H746.343L736.647 436.592H732.951L723.303 415.472H723.831V440H718.167V408.848ZM760.072 440V408.848H780.088V413.744H765.736V421.952H779.224V426.848H765.736V435.056H780.088V440H760.072ZM788.196 408.848H794.388L808.548 431.072H808.116V408.848H813.78V440H808.02L792.948 416.432H793.86V440H788.196V408.848ZM818.522 413.744V408.848H843.482V413.744H832.562L833.834 412.448V440H828.17V412.448L829.442 413.744H818.522Z" fill="black"/>
<path d="M417.325 60.9648C399.492 62.8332 385.767 69.5708 376.499 81.0409C361.276 99.8797 362.486 126.288 363.201 133.846C375.774 117.64 389.715 112.856 397.61 111.465C398.081 103.076 402.461 83.7466 417.325 60.9648Z" fill="#0095AF"/>
<path d="M454.002 167.331C452.703 175.213 448.057 189.314 431.783 202.033C432.013 202.035 432.257 202.036 432.516 202.036C448.035 202.036 497.637 197.73 504.419 144.083C483.94 158.445 463.298 165.415 454.002 167.331Z" fill="#0095AF"/>
<path d="M416.747 155.088C407.181 161.964 399.253 166.746 397.071 167.09C396.967 167.106 396.868 167.114 396.778 167.114C396.061 167.114 395.53 166.645 395.424 165.917C395.095 163.66 399.98 155.333 407.258 145.335C401.137 138.902 393.137 130.198 389.886 125.363C384.679 128.41 376.927 134.672 374.99 145.634C376.194 146.11 379.61 147.01 385.198 144.977C385.529 144.858 385.9 144.952 386.134 145.218C386.366 145.483 386.412 145.864 386.248 146.177C386.093 146.474 370.989 175.61 374.339 189.29C378.642 189.012 402.489 186.936 417.91 174.598C418.231 174.342 418.69 174.349 419.001 174.619C419.313 174.888 419.389 175.341 419.182 175.695C419.138 175.773 414.884 183.21 417.223 189.216C420.137 188.618 432.219 185.602 438.835 175.798C434.883 172.836 425.545 163.937 416.747 155.088Z" fill="#FDBD30"/>
<path d="M447.718 167.209C444.425 164.984 435.965 156.718 426.929 147.424C423.947 149.771 420.987 152.006 418.148 154.074C429.156 165.139 439.107 174.371 440.98 175.174C441.116 175.232 441.251 175.261 441.396 175.261C443.243 175.261 445.636 171.536 447.718 167.209Z" fill="#F05B6C"/>
<path d="M408.281 143.938C410.404 141.064 412.709 138.074 415.132 135.064C406.813 126.193 399.818 118.4 398.21 116.114C394.713 118.205 391.129 120.614 390.099 122.189C390.261 123.718 396.008 131.039 408.281 143.938Z" fill="#F05B6C"/>
<path d="M528.451 120.248C544.405 101.727 552.055 73.4198 555.472 55.7089C522.01 41.5422 510.198 18.2294 506.092 5.04248C482.458 9.51408 455.482 19.1067 438.143 37.4465C402.62 75.0193 397.851 111.385 399.449 114.9C400.259 116.682 407.452 124.664 416.144 133.815C428.33 118.855 443.197 103.798 452.887 100.907C453.412 100.75 453.952 100.671 454.491 100.671C457.791 100.671 460.616 103.542 460.92 107.205C461.71 116.68 444.915 133.101 428.275 146.358C438.425 156.666 447.709 165.619 449.238 166.128C449.279 166.143 449.449 166.189 449.88 166.189C456.494 166.189 499.652 153.682 528.451 120.248ZM456.278 63.6199C458 55.9606 463.249 45.5056 478.473 39.193C482.732 37.426 487.041 36.5305 491.278 36.5305C502.91 36.5305 513.641 43.3103 519.981 54.6664C526.661 66.6321 526.711 80.7168 520.113 91.4224C511.132 105.991 499.992 109.049 492.229 109.049C482.53 109.049 472.345 104.192 464.984 96.0569C457.2 87.4509 453.783 74.7197 456.278 63.6199Z" fill="#FFE473"/>
<path d="M492.231 107.34C499.558 107.34 510.092 104.423 518.658 90.5255C524.933 80.3462 524.868 66.9257 518.488 55.4989C512.455 44.693 502.282 38.2402 491.278 38.2402C487.267 38.2402 483.178 39.0924 479.127 40.7717C464.579 46.8041 459.578 56.7316 457.945 63.9966C455.568 74.5713 458.829 86.7056 466.252 94.9117C473.295 102.694 483.006 107.34 492.231 107.34ZM466.439 66.2558C467.653 60.858 471.348 53.4904 482.062 49.0484C485.063 47.8032 488.099 47.1732 491.086 47.1732C499.288 47.1732 506.851 51.9478 511.316 59.9454C516.017 68.3669 516.05 78.2841 511.402 85.8249C505.08 96.0805 497.225 98.2337 491.749 98.2337C484.918 98.2337 477.747 94.8171 472.569 89.0934C467.088 83.0348 464.682 74.0711 466.439 66.2558Z" fill="#F05B6C"/>
<path d="M492.231 109.048C499.993 109.048 511.132 105.99 520.114 91.4212C526.713 80.7155 526.662 66.6309 519.982 54.6652C513.642 43.309 502.912 36.5293 491.279 36.5293C487.041 36.5293 482.733 37.4248 478.474 39.1918C463.249 45.5044 458 55.9606 456.279 63.6187C453.784 74.7185 457.202 87.4497 464.986 96.0546C472.346 104.191 482.531 109.048 492.231 109.048ZM457.944 63.9946C459.578 56.7295 464.58 46.802 479.127 40.7696C483.178 39.0904 487.267 38.2382 491.278 38.2382C502.282 38.2382 512.455 44.691 518.488 55.4969C524.868 66.9237 524.932 80.3453 518.658 90.5235C510.091 104.42 499.557 107.338 492.231 107.338C483.006 107.338 473.295 102.692 466.253 94.9085C458.829 86.7035 455.568 74.5692 457.944 63.9946Z" fill="#2C2C3A"/>
<path d="M491.749 96.5244C496.79 96.5244 504.039 94.5125 509.947 84.9279C514.271 77.9135 514.224 68.6604 509.824 60.779C505.666 53.3293 498.661 48.8828 491.087 48.8828C488.325 48.8828 485.509 49.4707 482.717 50.627C472.681 54.7887 469.232 61.6266 468.107 66.6314C466.468 73.9204 468.717 82.2882 473.836 87.9469C478.696 93.3174 485.393 96.5244 491.749 96.5244Z" fill="#C0E6F1"/>
<path d="M491.748 98.2334C497.225 98.2334 505.08 96.0802 511.402 85.8246C516.05 78.2838 516.017 68.3677 511.315 59.9451C506.851 51.9475 499.288 47.1729 491.085 47.1729C488.098 47.1729 485.062 47.804 482.061 49.0481C471.348 53.4889 467.653 60.8565 466.439 66.2555C464.682 74.0697 467.088 83.0345 472.568 89.092C477.747 94.8168 484.917 98.2334 491.748 98.2334ZM468.107 66.6303C469.232 61.6255 472.68 54.7877 482.716 50.626C485.509 49.4685 488.325 48.8817 491.087 48.8817C498.66 48.8817 505.666 53.3283 509.824 60.7779C514.224 68.6593 514.272 77.9124 509.947 84.9268C504.039 94.5114 496.79 96.5234 491.748 96.5234C485.393 96.5234 478.696 93.3175 473.836 87.9459C468.717 82.2883 466.467 73.9204 468.107 66.6303Z" fill="#2C2C3A"/>
<path d="M507.779 4.72089C511.835 17.6048 523.383 40.153 555.791 53.9962C560.651 27.6929 559.748 6.97205 556.939 4.16377C555.722 2.94704 549.819 1.71777 539.379 1.71777C529.729 1.71777 518.545 2.78186 507.779 4.72089Z" fill="#F87666"/>
<path d="M558.468 3.33806C558.364 3.19338 558.256 3.06578 558.146 2.95527C556.296 1.10511 549.26 0 539.325 0C535.888 0 531.983 0.146971 527.752 0.462547C527.559 0.476218 527.368 0.492169 527.175 0.50698C526.136 0.587867 525.079 0.679005 524.003 0.781538C523.698 0.81002 523.394 0.836237 523.087 0.866997C521.944 0.980923 520.784 1.1051 519.604 1.24523C518.871 1.33068 518.137 1.42749 517.403 1.52205C516.979 1.57674 516.559 1.62916 516.132 1.68727C515.206 1.81258 514.282 1.94473 513.356 2.08372C513.217 2.10423 513.077 2.12587 512.938 2.14752C510.791 2.47221 508.647 2.82083 506.524 3.21387C506.501 3.21843 506.483 3.23439 506.46 3.24009C482.375 7.71738 454.682 17.466 436.9 36.273C429.534 44.0644 423.502 51.7635 418.55 59.1345C399.563 60.8377 384.968 67.835 375.16 79.9784C356.841 102.659 361.699 135.867 361.75 136.2C361.802 136.542 362.055 136.817 362.391 136.899C362.458 136.916 362.527 136.923 362.594 136.923C362.862 136.923 363.119 136.797 363.283 136.573C375.688 119.659 389.653 114.66 397.572 113.204C397.578 113.674 397.598 114.102 397.637 114.454C393.937 116.643 389.765 119.418 388.571 121.407C388.341 121.79 388.324 122.27 388.519 122.873C388.615 123.169 388.774 123.518 388.988 123.913C383.379 127.209 375.04 134.012 373.196 145.997C373.145 146.332 373.295 146.666 373.582 146.848C373.737 146.948 377.166 149.052 383.805 147.216C380.404 154.096 369.209 178.202 372.876 190.428C372.988 190.8 373.363 191.073 373.727 191.035C373.99 191.024 398.884 189.941 416.26 177.949C415.055 181.107 413.846 186.136 415.935 190.548C416.078 190.85 416.381 191.037 416.707 191.037C416.75 191.037 416.793 191.034 416.837 191.027C417.017 190.999 432.318 188.512 440.26 176.723C440.273 176.729 440.292 176.74 440.305 176.746C440.653 176.895 441.02 176.971 441.394 176.971C444.109 176.971 446.967 172.663 449.274 167.866C449.456 167.886 449.652 167.899 449.879 167.9H449.88C450.436 167.9 451.241 167.814 452.225 167.658C450.805 175.61 445.846 189.647 428.833 202.124C428.544 202.336 428.417 202.706 428.517 203.051C428.616 203.396 428.921 203.642 429.278 203.666C429.326 203.669 430.485 203.748 432.514 203.748C439.379 203.748 457.114 202.804 473.475 194.062C492.671 183.805 503.696 166.555 506.298 142.749C514.439 136.853 522.497 129.779 529.745 121.365C549.973 97.883 558.91 56.7557 560.635 29.557C561.512 16.6389 560.814 6.46647 558.468 3.33806ZM432.515 202.037C432.255 202.037 432.012 202.035 431.781 202.033C448.056 189.314 452.703 175.214 454 167.331C463.297 165.415 483.939 158.445 504.416 144.083C497.635 197.73 448.034 202.037 432.515 202.037ZM449.88 166.189C449.449 166.189 449.28 166.143 449.238 166.128C447.709 165.619 438.426 156.665 428.275 146.357C444.915 133.101 461.71 116.68 460.92 107.204C460.615 103.541 457.791 100.671 454.491 100.671C453.951 100.671 453.413 100.749 452.887 100.907C443.197 103.797 428.331 118.853 416.144 133.815C407.454 124.664 400.259 116.683 399.449 114.9C397.851 111.384 402.62 75.0192 438.143 37.4464C455.483 19.1066 482.458 9.51396 506.092 5.04236C510.198 18.2293 522.01 41.542 555.472 55.7087C552.055 73.4197 544.405 101.727 528.451 120.248C499.652 153.682 456.494 166.189 449.88 166.189ZM440.98 175.174C439.107 174.371 429.155 165.139 418.148 154.074C420.987 152.007 423.947 149.771 426.929 147.424C435.965 156.718 444.425 164.983 447.717 167.209C445.636 171.536 443.242 175.261 441.396 175.261C441.252 175.261 441.116 175.232 440.98 175.174ZM417.223 189.215C414.883 183.209 419.138 175.772 419.182 175.695C419.39 175.34 419.313 174.887 419.001 174.618C418.69 174.349 418.231 174.341 417.91 174.597C402.489 186.935 378.642 189.01 374.339 189.289C370.989 175.609 386.091 146.474 386.247 146.176C386.411 145.864 386.366 145.484 386.133 145.217C385.9 144.952 385.529 144.857 385.198 144.977C379.61 147.009 376.193 146.109 374.99 145.633C376.927 134.671 384.677 128.41 389.886 125.362C393.136 130.196 401.136 138.901 407.258 145.334C399.98 155.331 395.095 163.659 395.424 165.916C395.53 166.644 396.062 167.114 396.778 167.114C396.868 167.114 396.967 167.106 397.07 167.09C399.253 166.746 407.182 161.962 416.747 155.088C425.545 163.937 434.882 172.836 438.835 175.797C432.219 185.602 420.137 188.617 417.223 189.215ZM390.099 122.189C391.129 120.614 394.712 118.204 398.21 116.115C399.818 118.4 406.813 126.194 415.132 135.064C412.71 138.074 410.404 141.064 408.281 143.939C396.009 131.039 390.261 123.718 390.099 122.189ZM453.376 102.545C453.743 102.436 454.118 102.38 454.491 102.38C456.869 102.38 458.989 104.608 459.217 107.347C460.553 123.383 404.701 163.258 397.101 165.335C397.63 158.848 435.114 107.992 453.376 102.545ZM363.2 133.845C362.485 126.287 361.275 99.8802 376.498 81.0402C385.765 69.5701 399.491 62.8337 417.324 60.9642C402.46 83.746 398.08 103.076 397.609 111.464C389.714 112.855 375.773 117.639 363.2 133.845ZM555.79 53.9964C523.381 40.1533 511.834 17.605 507.778 4.72111C518.545 2.78323 529.728 1.718 539.377 1.718C549.817 1.718 555.719 2.94613 556.937 4.164C559.747 6.97114 560.65 27.6932 555.79 53.9964Z" fill="#2C2C3A"/>
<path d="M397.101 165.335C404.701 163.259 460.555 123.384 459.217 107.347C458.989 104.608 456.869 102.379 454.492 102.379C454.118 102.379 453.742 102.435 453.376 102.545C435.114 107.991 397.63 158.848 397.101 165.335Z" fill="#0095AF"/>
<path d="M509.947 84.9272C513.401 79.3254 514.057 72.2962 511.943 65.6782C507.39 73.8376 501.476 79.9452 489.799 82.0767C485.884 82.791 475.998 84.1115 469.884 81.9058C470.896 84.1092 472.222 86.1621 473.836 87.9451C478.696 93.3167 485.393 96.5226 491.749 96.5226C496.79 96.5237 504.039 94.5118 509.947 84.9272Z" fill="#92D7EF"/>
<path d="M537.291 45.8535C533.421 53.0947 529.111 60.0909 524.375 66.7772C525.986 75.4037 524.575 84.1851 520.114 91.4228C511.133 105.992 499.994 109.049 492.231 109.049C489.634 109.049 487.004 108.691 484.402 108.025C479.47 111.722 474.337 115.176 469.006 118.353C459.783 123.848 451.134 129.329 442.221 134.4C437.838 138.488 433.052 142.554 428.275 146.359C438.426 156.667 447.709 165.621 449.238 166.13C449.279 166.145 449.449 166.19 449.88 166.19C456.494 166.19 499.652 153.682 528.45 120.25C544.404 101.729 552.054 73.4214 555.471 55.7104C548.512 52.7631 542.502 49.4171 537.291 45.8535Z" fill="#FFE473"/>
<path d="M554.178 2.99609C550.361 17.3508 544.944 31.2384 538.089 44.3376C543.164 47.8249 549.015 51.1025 555.79 53.9963C560.65 27.693 559.747 6.97211 556.938 4.16383C556.535 3.75939 555.605 3.3561 554.178 2.99609Z" fill="#F87666"/>
<path d="M397.61 111.465C397.822 107.683 398.843 101.662 401.248 94.1177C398.733 94.9539 396.245 95.8049 393.796 96.558C381.045 100.482 371.73 107.33 363.309 116.173C362.513 124.097 362.899 130.655 363.201 133.846C375.773 117.639 389.714 112.855 397.61 111.465Z" fill="#0095AF"/>
<path d="M466.868 163.566C461.581 165.457 457.141 166.684 454 167.331C452.702 175.214 448.056 189.314 431.781 202.033C432.012 202.035 432.255 202.036 432.515 202.036C436.934 202.036 444.118 201.686 452.288 199.947C460.226 189.047 465.306 174.768 466.868 163.566Z" fill="#0095AF"/>
<path d="M418.687 133.748L418.414 133.761C418.385 133.798 418.355 133.834 418.326 133.869C418.445 133.825 418.565 133.782 418.687 133.748Z" fill="#0095AF"/>
<path d="M418.87 146.401C414.181 146.005 413.344 142.138 414.389 138.761C404.676 151.105 397.332 162.49 397.1 165.336C400.91 164.294 416.846 153.755 431.624 141.481C427.303 143.851 422.149 146.679 418.87 146.401Z" fill="#0095AF"/>
<path d="M486.648 56.3258C483.93 54.7958 481.076 56.115 478.852 57.9344C477.269 59.2298 475.268 61.8615 475.93 64.0329C476.159 64.7826 476.915 65.228 477.682 65.0275C479.191 64.6333 480.403 63.2263 481.855 62.586C483.464 61.8751 485.201 61.9048 486.649 60.8225C488.143 59.7048 488.503 57.3694 486.648 56.3258Z" fill="#F1F8F4"/>
<path d="M497.104 56.0438C496.372 55.7749 495.679 55.4491 494.885 55.4468C494.061 55.4445 493.306 55.8353 492.588 56.1873C491.659 56.6441 491.659 58.1901 492.588 58.647C493.306 58.999 494.06 59.3898 494.885 59.3875C495.678 59.3852 496.372 59.0594 497.104 58.7905C498.458 58.2938 498.458 56.5405 497.104 56.0438Z" fill="#F1F8F4"/>
<path d="M471.377 92.7524C469.197 92.7524 469.197 96.1349 471.377 96.1349C473.558 96.1349 473.558 92.7524 471.377 92.7524Z" fill="#2C2C3A"/>
<path d="M463.688 79.0806C461.507 79.0806 461.507 82.463 463.688 82.463C465.868 82.463 465.868 79.0806 463.688 79.0806Z" fill="#2C2C3A"/>
<path d="M462.548 60.5669C460.368 60.5669 460.368 63.9494 462.548 63.9494C464.729 63.9494 464.729 60.5669 462.548 60.5669Z" fill="#2C2C3A"/>
<path d="M472.802 47.4663C470.621 47.4663 470.621 50.8488 472.802 50.8488C474.982 50.8488 474.982 47.4663 472.802 47.4663Z" fill="#2C2C3A"/>
<path d="M487.327 41.2007C485.147 41.2007 485.147 44.5831 487.327 44.5831C489.508 44.5831 489.508 41.2007 487.327 41.2007Z" fill="#2C2C3A"/>
<path d="M504.701 44.334C502.521 44.334 502.521 47.7164 504.701 47.7164C506.882 47.7164 506.882 44.334 504.701 44.334Z" fill="#2C2C3A"/>
<path d="M514.954 55.7261C512.774 55.7261 512.774 59.1085 514.954 59.1085C517.135 59.1085 517.135 55.7261 514.954 55.7261Z" fill="#2C2C3A"/>
<path d="M518.087 74.5239C515.907 74.5239 515.907 77.9064 518.087 77.9064C520.268 77.9064 520.268 74.5239 518.087 74.5239Z" fill="#2C2C3A"/>
<path d="M512.391 89.9043C510.21 89.9043 510.21 93.2868 512.391 93.2868C514.572 93.2868 514.572 89.9043 512.391 89.9043Z" fill="#2C2C3A"/>
<path d="M499.005 100.175C496.824 100.175 496.824 103.558 499.005 103.558C501.185 103.557 501.185 100.175 499.005 100.175Z" fill="#2C2C3A"/>
<path d="M484.479 99.606C482.299 99.606 482.299 102.988 484.479 102.988C486.66 102.987 486.66 99.606 484.479 99.606Z" fill="#2C2C3A"/>
<path d="M437.319 174.59C432.809 170.852 424.57 162.956 416.747 155.087C407.181 161.963 399.253 166.745 397.07 167.089C396.967 167.105 396.868 167.113 396.778 167.113C396.061 167.113 395.53 166.644 395.424 165.916C395.095 163.659 399.98 155.332 407.258 145.334C402.028 139.838 395.439 132.694 391.6 127.712C388.521 129.318 384.709 137.408 383.633 140.312C387.343 140.979 390.987 140.7 394.717 140.893C394.91 147.82 390.039 155.535 388.534 162.283C387.354 167.577 386.279 172.874 385.164 178.172C397.44 178.785 411.074 173.514 421.776 168.001C422.519 172.973 423.682 178.021 423.519 183.089C427.851 180.95 432.774 178.074 437.319 174.59Z" fill="#F79731"/>
<path d="M416.746 155.087C407.181 161.963 399.253 166.745 397.07 167.09C396.967 167.105 396.867 167.113 396.777 167.113C396.664 167.113 396.563 167.083 396.46 167.06C396.461 168.013 396.469 168.959 396.485 169.89C402.247 170.387 409.379 167.96 414.944 166.488C417.275 165.872 419.794 165.505 422.035 164.784C423.452 168.859 427.118 172.404 428.137 176.444C430.593 176.114 432.664 173.712 434.596 172.238C429.905 168.057 423.187 161.565 416.746 155.087Z" fill="#F37530"/>
<path d="M396.525 162.227C398.335 158.366 402.221 152.251 407.257 145.335C402.982 140.843 397.821 135.265 393.974 130.651C392.773 132.694 391.329 134.698 390.757 137.049C392.615 137.914 397.291 138.111 398.516 139.373C400.289 141.202 397.963 147.215 397.604 149.532C396.978 153.581 396.652 157.928 396.525 162.227Z" fill="#F37530"/>
<path d="M484.599 16.0843C479.527 16.8932 475.181 19.9521 470.755 22.4084C466.544 24.7473 461.764 26.9347 458.443 30.4846C457.938 31.0246 458.252 32.1046 459.088 32.042C463.899 31.6831 468.512 29.4034 472.944 27.6023C477.876 25.5983 483.128 24.058 487.13 20.4352C489.257 18.511 486.943 15.7095 484.599 16.0843Z" fill="#FFF7D5"/>
<path d="M500.713 12.6567C498.659 12.4881 495.722 12.8447 494.34 14.5878C493.969 15.056 493.949 15.7624 494.534 16.0905C496.614 17.2594 499.496 16.4072 501.454 15.3933C502.854 14.6698 502.061 12.7684 500.713 12.6567Z" fill="#FFF7D5"/>
<path d="M533.848 7.0631C529.019 5.95004 521.452 6.04004 517.274 9.07162C516.601 9.56036 516.53 10.8283 517.529 11.0243C519.805 11.4697 522.128 11.0095 524.433 10.915C527.427 10.7919 530.388 10.8648 533.374 10.5606C535.253 10.3681 535.941 7.54501 533.848 7.0631Z" fill="#FFA79D"/>
<path d="M367.295 155.28C363.874 158.826 360.374 162.246 357.389 166.169C356.831 166.903 357.992 167.682 358.613 167.113C362.192 163.829 365.228 160.058 368.397 156.381C369.044 155.63 368 154.55 367.295 155.28Z" fill="#484859"/>
<path d="M364.799 170.999C356.238 180.071 347.327 188.924 339.291 198.467C338.378 199.55 339.813 201.047 340.864 200.04C349.869 191.41 358.125 181.949 366.624 172.824C367.756 171.61 365.944 169.786 364.799 170.999Z" fill="#484859"/>
<path d="M363.824 195.664C356.426 202.479 348.764 209.1 341.715 216.275C340.836 217.17 342.135 218.408 343.068 217.629C350.789 211.174 358.008 204.067 365.399 197.237C366.454 196.261 364.878 194.693 363.824 195.664Z" fill="#484859"/>
<path d="M384.386 194.576C381.902 197.222 379.344 199.807 377.059 202.629C376.368 203.484 377.455 204.639 378.286 203.856C380.929 201.373 383.316 198.63 385.77 195.96C386.622 195.033 385.253 193.652 384.386 194.576Z" fill="#484859"/>
<path d="M407.497 190.914C402.581 196.109 397.143 201.111 392.79 206.789C391.976 207.852 393.642 208.905 394.538 208.138C399.887 203.551 404.512 197.89 409.354 192.771C410.517 191.542 408.664 189.682 407.497 190.914Z" fill="#484859"/>
<path d="M420.595 196.912C418.727 198.203 416.992 199.638 415.382 201.241C413.908 202.708 412.258 204.424 411.585 206.429C411.294 207.295 412.431 207.832 413.035 207.273C414.476 205.942 415.476 204.101 416.742 202.601C418.156 200.925 419.774 199.431 421.485 198.065C422.136 197.545 421.277 196.44 420.595 196.912Z" fill="#484859"/>
</svg>
