<svg width="827" height="423" viewBox="0 0 827 423" fill="none" xmlns="http://www.w3.org/2000/svg">
<rect x="110.273" y="244.114" width="603.779" height="131.831" transform="rotate(-3.83404 110.273 244.114)" fill="#F87666"/>
<path d="M0.576 262.488V252.696H50.496V262.488H28.656L31.2 259.896V315H19.872V259.896L22.416 262.488H0.576ZM91.896 315V287.736C91.896 284.28 91.064 281.672 89.4 279.912C87.736 278.152 85.56 277.272 82.872 277.272C80.6 277.272 78.584 277.896 76.824 279.144C75.096 280.392 73.736 282.28 72.744 284.808C71.752 287.304 71.256 290.424 71.256 294.168H67.512C67.512 288.12 68.264 283.096 69.768 279.096C71.272 275.064 73.4 272.056 76.152 270.072C78.904 268.088 82.136 267.096 85.848 267.096C89.688 267.096 92.888 267.96 95.448 269.688C98.04 271.384 99.976 273.784 101.256 276.888C102.568 279.992 103.224 283.608 103.224 287.736V315H91.896ZM59.928 315V249.144H71.256V315H59.928ZM137.117 316.344C133.149 316.344 129.517 315.32 126.221 313.272C122.925 311.224 120.285 308.36 118.301 304.68C116.317 300.968 115.325 296.632 115.325 291.672C115.325 286.552 116.301 282.152 118.253 278.472C120.237 274.792 122.877 271.976 126.173 270.024C129.469 268.072 133.117 267.096 137.117 267.096C140.829 267.096 144.029 267.848 146.717 269.352C149.437 270.824 151.613 272.84 153.245 275.4C154.909 277.928 156.029 280.792 156.605 283.992C157.181 287.192 157.213 290.488 156.701 293.88H124.349V287.736H148.685L146.477 289.176C146.573 287.672 146.493 286.152 146.237 284.616C146.013 283.08 145.565 281.672 144.893 280.392C144.221 279.112 143.261 278.088 142.013 277.32C140.797 276.52 139.229 276.12 137.309 276.12C135.005 276.12 133.053 276.696 131.453 277.848C129.853 279 128.637 280.568 127.805 282.552C126.973 284.536 126.557 286.776 126.557 289.272V293.784C126.557 296.408 126.941 298.728 127.709 300.744C128.509 302.76 129.677 304.344 131.213 305.496C132.781 306.648 134.749 307.224 137.117 307.224C139.325 307.224 141.181 306.712 142.685 305.688C144.189 304.664 145.149 303.128 145.565 301.08H156.989C156.509 304.088 155.373 306.744 153.581 309.048C151.821 311.32 149.533 313.112 146.717 314.424C143.901 315.704 140.701 316.344 137.117 316.344ZM170.359 315V252.696H192.343C199.351 252.696 204.807 254.424 208.711 257.88C212.647 261.336 214.615 266.232 214.615 272.568C214.615 278.84 212.647 283.704 208.711 287.16C204.807 290.616 199.351 292.344 192.343 292.344H181.783V315H170.359ZM181.783 282.456H192.343C195.863 282.456 198.519 281.528 200.311 279.672C202.103 277.816 202.999 275.448 202.999 272.568C202.999 269.624 202.103 267.208 200.311 265.32C198.519 263.432 195.863 262.488 192.343 262.488H181.783V282.456ZM226.334 315V268.248H237.662V315H226.334ZM234.878 294.552C234.878 288.44 235.566 283.384 236.942 279.384C238.318 275.384 240.158 272.424 242.462 270.504C244.798 268.552 247.39 267.576 250.238 267.576C251.006 267.576 251.726 267.624 252.398 267.72C253.102 267.816 253.79 267.96 254.462 268.152L254.27 279.48C253.438 279.288 252.542 279.128 251.582 279C250.622 278.872 249.758 278.808 248.99 278.808C246.494 278.808 244.398 279.416 242.702 280.632C241.038 281.816 239.774 283.576 238.91 285.912C238.078 288.248 237.662 291.128 237.662 294.552H234.878ZM282.358 316.344C278.102 316.344 274.246 315.432 270.79 313.608C267.366 311.784 264.646 309.064 262.63 305.448C260.614 301.8 259.606 297.24 259.606 291.768C259.606 286.2 260.614 281.592 262.63 277.944C264.646 274.296 267.366 271.576 270.79 269.784C274.246 267.992 278.102 267.096 282.358 267.096C286.55 267.096 290.342 267.992 293.734 269.784C297.158 271.576 299.878 274.296 301.894 277.944C303.91 281.592 304.918 286.2 304.918 291.768C304.918 297.24 303.91 301.8 301.894 305.448C299.878 309.064 297.158 311.784 293.734 313.608C290.342 315.432 286.55 316.344 282.358 316.344ZM281.974 306.456C284.214 306.456 286.198 305.912 287.926 304.824C289.686 303.704 291.062 302.056 292.054 299.88C293.078 297.704 293.59 295 293.59 291.768C293.59 286.84 292.614 283.128 290.662 280.632C288.742 278.136 286.102 276.888 282.742 276.888C280.47 276.888 278.454 277.448 276.694 278.568C274.934 279.656 273.542 281.304 272.518 283.512C271.526 285.72 271.03 288.472 271.03 291.768C271.03 296.632 272.006 300.296 273.958 302.76C275.942 305.224 278.614 306.456 281.974 306.456ZM335.581 316.344C331.677 316.344 328.109 315.32 324.877 313.272C321.677 311.192 319.117 308.296 317.197 304.584C315.309 300.84 314.365 296.472 314.365 291.48C314.365 286.552 315.277 282.264 317.101 278.616C318.957 274.936 321.421 272.104 324.493 270.12C327.597 268.104 331.037 267.096 334.813 267.096C338.269 267.096 341.261 267.928 343.789 269.592C346.317 271.224 348.253 273.656 349.597 276.888C350.941 280.12 351.613 284.088 351.613 288.792H348.061C348.061 286.36 347.565 284.296 346.573 282.6C345.581 280.872 344.269 279.56 342.637 278.664C341.037 277.736 339.293 277.272 337.405 277.272C335.133 277.272 333.117 277.864 331.357 279.048C329.629 280.232 328.269 281.896 327.277 284.04C326.285 286.152 325.789 288.632 325.789 291.48C325.789 294.424 326.285 296.984 327.277 299.16C328.269 301.336 329.629 303.032 331.357 304.248C333.117 305.464 335.101 306.072 337.309 306.072C339.101 306.072 340.813 305.592 342.445 304.632C344.109 303.64 345.453 302.264 346.477 300.504C347.533 298.744 348.061 296.696 348.061 294.36H351.613C351.613 299.256 350.877 303.336 349.405 306.6C347.965 309.832 346.029 312.264 343.597 313.896C341.165 315.528 338.493 316.344 335.581 316.344ZM350.173 315L348.061 303.48V249.144H359.485V315H350.173ZM408.374 268.248H419.702V315H408.374V268.248ZM376.406 268.248H387.734V296.856C387.734 299.896 388.486 302.184 389.99 303.72C391.494 305.224 393.558 305.976 396.182 305.976C398.422 305.976 400.454 305.4 402.278 304.248C404.134 303.064 405.606 301.336 406.694 299.064C407.814 296.76 408.374 293.912 408.374 290.52H411.446C411.446 296.216 410.71 300.936 409.238 304.68C407.766 308.424 405.734 311.224 403.142 313.08C400.55 314.936 397.558 315.864 394.166 315.864C390.838 315.864 387.83 315.272 385.142 314.088C382.454 312.904 380.326 311 378.758 308.376C377.19 305.752 376.406 302.296 376.406 298.008V268.248ZM455.217 316.344C451.313 316.344 447.681 315.336 444.321 313.32C440.993 311.272 438.289 308.408 436.209 304.728C434.161 301.016 433.137 296.664 433.137 291.672C433.137 286.392 434.161 281.928 436.209 278.28C438.289 274.6 440.993 271.816 444.321 269.928C447.681 268.04 451.313 267.096 455.217 267.096C458.257 267.096 460.929 267.592 463.233 268.584C465.569 269.544 467.553 270.856 469.185 272.52C470.817 274.152 472.097 275.976 473.025 277.992C473.953 280.008 474.545 282.04 474.801 284.088L463.377 284.376C462.865 282.328 461.905 280.632 460.497 279.288C459.121 277.944 457.329 277.272 455.121 277.272C453.297 277.272 451.585 277.784 449.985 278.808C448.385 279.8 447.073 281.352 446.049 283.464C445.057 285.576 444.561 288.312 444.561 291.672C444.561 294.872 445.025 297.544 445.953 299.688C446.913 301.8 448.193 303.4 449.793 304.488C451.393 305.544 453.169 306.072 455.121 306.072C458.001 306.072 460.097 305.384 461.409 304.008C462.721 302.6 463.377 300.728 463.377 298.392H474.801C474.801 301.688 474.049 304.696 472.545 307.416C471.041 310.136 468.833 312.312 465.921 313.944C463.009 315.544 459.441 316.344 455.217 316.344ZM504.109 316.344C501.358 316.344 498.83 315.832 496.526 314.808C494.254 313.784 492.43 312.216 491.054 310.104C489.71 307.992 489.038 305.304 489.038 302.04V256.056H500.366V301.656C500.366 305.496 502.19 307.416 505.838 307.416C506.958 307.416 508.078 307.288 509.198 307.032C510.318 306.776 511.598 306.392 513.038 305.88L514.67 313.848C512.878 314.552 511.134 315.144 509.438 315.624C507.742 316.104 505.966 316.344 504.109 316.344ZM482.51 275.928V268.44H513.038V275.928H482.51ZM525.953 315V252.696H547.937C554.945 252.696 560.401 254.424 564.305 257.88C568.241 261.336 570.208 266.232 570.208 272.568C570.208 278.84 568.241 283.704 564.305 287.16C560.401 290.616 554.945 292.344 547.937 292.344H537.377V315H525.953ZM537.377 282.456H547.937C551.457 282.456 554.113 281.528 555.905 279.672C557.697 277.816 558.593 275.448 558.593 272.568C558.593 269.624 557.697 267.208 555.905 265.32C554.113 263.432 551.457 262.488 547.937 262.488H537.377V282.456ZM599.304 316.344C595.336 316.344 591.704 315.32 588.408 313.272C585.112 311.224 582.472 308.36 580.488 304.68C578.504 300.968 577.512 296.632 577.512 291.672C577.512 286.552 578.488 282.152 580.44 278.472C582.424 274.792 585.064 271.976 588.36 270.024C591.656 268.072 595.304 267.096 599.304 267.096C603.016 267.096 606.216 267.848 608.904 269.352C611.624 270.824 613.8 272.84 615.432 275.4C617.096 277.928 618.216 280.792 618.792 283.992C619.368 287.192 619.4 290.488 618.888 293.88H586.536V287.736H610.872L608.664 289.176C608.76 287.672 608.68 286.152 608.424 284.616C608.2 283.08 607.752 281.672 607.08 280.392C606.408 279.112 605.448 278.088 604.2 277.32C602.984 276.52 601.416 276.12 599.496 276.12C597.192 276.12 595.24 276.696 593.64 277.848C592.04 279 590.824 280.568 589.992 282.552C589.16 284.536 588.744 286.776 588.744 289.272V293.784C588.744 296.408 589.128 298.728 589.896 300.744C590.696 302.76 591.864 304.344 593.4 305.496C594.968 306.648 596.936 307.224 599.304 307.224C601.512 307.224 603.368 306.712 604.872 305.688C606.376 304.664 607.336 303.128 607.752 301.08H619.176C618.696 304.088 617.56 306.744 615.768 309.048C614.008 311.32 611.72 313.112 608.904 314.424C606.088 315.704 602.888 316.344 599.304 316.344ZM632.834 315V268.248H644.162V315H632.834ZM641.378 294.552C641.378 288.44 642.066 283.384 643.442 279.384C644.818 275.384 646.658 272.424 648.962 270.504C651.298 268.552 653.89 267.576 656.738 267.576C657.506 267.576 658.226 267.624 658.898 267.72C659.602 267.816 660.29 267.96 660.962 268.152L660.77 279.48C659.938 279.288 659.042 279.128 658.082 279C657.122 278.872 656.258 278.808 655.49 278.808C652.994 278.808 650.898 279.416 649.202 280.632C647.538 281.816 646.274 283.576 645.41 285.912C644.578 288.248 644.162 291.128 644.162 294.552H641.378ZM687.898 316.344C683.418 316.344 679.562 315.736 676.33 314.52C673.13 313.272 670.666 311.496 668.938 309.192C667.21 306.856 666.33 304.056 666.298 300.792H676.762C676.858 303.096 677.77 304.776 679.498 305.832C681.226 306.888 683.578 307.416 686.554 307.416C688.186 307.416 689.626 307.176 690.874 306.696C692.154 306.216 693.146 305.56 693.85 304.728C694.554 303.896 694.906 302.968 694.906 301.944C694.906 300.632 694.426 299.608 693.466 298.872C692.538 298.104 691.034 297.4 688.954 296.76L678.778 293.112C675.13 291.8 672.33 290.072 670.378 287.928C668.426 285.784 667.45 283.224 667.45 280.248C667.45 276.312 669.226 273.144 672.778 270.744C676.362 268.312 681.146 267.096 687.13 267.096C693.082 267.096 697.674 268.408 700.906 271.032C704.17 273.624 705.85 276.92 705.946 280.92H695.29C695.13 279.384 694.394 278.168 693.082 277.272C691.77 276.376 689.786 275.928 687.13 275.928C684.73 275.928 682.842 276.424 681.466 277.416C680.122 278.376 679.45 279.512 679.45 280.824C679.45 283.032 681.338 284.696 685.114 285.816L696.154 289.944C699.738 291.16 702.522 292.728 704.506 294.648C706.49 296.568 707.482 299 707.482 301.944C707.482 304.408 706.65 306.744 704.986 308.952C703.354 311.128 701.066 312.904 698.122 314.28C695.178 315.656 691.77 316.344 687.898 316.344ZM739.483 316.344C735.227 316.344 731.371 315.432 727.915 313.608C724.491 311.784 721.771 309.064 719.755 305.448C717.739 301.8 716.731 297.24 716.731 291.768C716.731 286.2 717.739 281.592 719.755 277.944C721.771 274.296 724.491 271.576 727.915 269.784C731.371 267.992 735.227 267.096 739.483 267.096C743.675 267.096 747.467 267.992 750.859 269.784C754.283 271.576 757.003 274.296 759.019 277.944C761.035 281.592 762.043 286.2 762.043 291.768C762.043 297.24 761.035 301.8 759.019 305.448C757.003 309.064 754.283 311.784 750.859 313.608C747.467 315.432 743.675 316.344 739.483 316.344ZM739.099 306.456C741.339 306.456 743.323 305.912 745.051 304.824C746.811 303.704 748.187 302.056 749.179 299.88C750.203 297.704 750.715 295 750.715 291.768C750.715 286.84 749.739 283.128 747.787 280.632C745.867 278.136 743.227 276.888 739.867 276.888C737.595 276.888 735.579 277.448 733.819 278.568C732.059 279.656 730.667 281.304 729.643 283.512C728.651 285.72 728.155 288.472 728.155 291.768C728.155 296.632 729.131 300.296 731.083 302.76C733.067 305.224 735.739 306.456 739.099 306.456ZM807.49 315V287.736C807.49 284.28 806.658 281.672 804.994 279.912C803.33 278.152 801.154 277.272 798.466 277.272C796.194 277.272 794.178 277.896 792.418 279.144C790.69 280.392 789.33 282.28 788.338 284.808C787.346 287.304 786.85 290.424 786.85 294.168H783.106C783.106 288.12 783.858 283.096 785.362 279.096C786.866 275.064 788.994 272.056 791.746 270.072C794.498 268.088 797.73 267.096 801.442 267.096C805.282 267.096 808.482 267.96 811.042 269.688C813.634 271.384 815.57 273.784 816.85 276.888C818.162 279.992 818.818 283.608 818.818 287.736V315H807.49ZM775.522 315V268.44H785.41L786.85 277.656V315H775.522Z" fill="black"/>
<path d="M215.7 413V387.28H224.56C227.44 387.28 229.673 387.993 231.26 389.42C232.847 390.847 233.64 392.84 233.64 395.4C233.64 397.947 232.847 399.933 231.26 401.36C229.673 402.787 227.44 403.5 224.56 403.5H220.02V413H215.7ZM220.02 399.76H224.56C226.107 399.76 227.273 399.36 228.06 398.56C228.847 397.747 229.24 396.693 229.24 395.4C229.24 394.093 228.847 393.027 228.06 392.2C227.273 391.373 226.107 390.96 224.56 390.96H220.02V399.76ZM238.73 413V387.28H248.11C251.15 387.28 253.47 387.993 255.07 389.42C256.683 390.847 257.49 392.733 257.49 395.08C257.49 397.4 256.683 399.273 255.07 400.7C253.47 402.127 251.15 402.84 248.11 402.84H243.01V413H238.73ZM252.79 413L245.83 401.04H250.41L258.37 413H252.79ZM243.01 399.94H247.69C249.463 399.94 250.81 399.527 251.73 398.7C252.65 397.86 253.11 396.78 253.11 395.46C253.11 394.1 252.683 393.013 251.83 392.2C250.99 391.373 249.75 390.96 248.11 390.96H243.01V399.94ZM273.76 413.54C271.52 413.54 269.534 413.04 267.8 412.04C266.067 411.04 264.707 409.547 263.72 407.56C262.734 405.573 262.24 403.1 262.24 400.14C262.24 397.127 262.734 394.633 263.72 392.66C264.707 390.687 266.067 389.213 267.8 388.24C269.534 387.267 271.52 386.78 273.76 386.78C276.014 386.78 278.007 387.28 279.74 388.28C281.487 389.267 282.847 390.753 283.82 392.74C284.807 394.713 285.3 397.18 285.3 400.14C285.3 403.127 284.807 405.62 283.82 407.62C282.847 409.607 281.487 411.093 279.74 412.08C278.007 413.053 276.014 413.54 273.76 413.54ZM273.76 409.64C275.947 409.64 277.68 408.827 278.96 407.2C280.24 405.56 280.88 403.193 280.88 400.1C280.88 397.087 280.24 394.753 278.96 393.1C277.68 391.447 275.947 390.62 273.76 390.62C271.614 390.62 269.894 391.453 268.6 393.12C267.32 394.773 266.68 397.113 266.68 400.14C266.68 403.22 267.32 405.573 268.6 407.2C269.894 408.827 271.614 409.64 273.76 409.64ZM291.034 387.28H299.154C301.768 387.28 304.048 387.807 305.994 388.86C307.954 389.913 309.474 391.4 310.554 393.32C311.648 395.24 312.194 397.52 312.194 400.16C312.194 402.747 311.648 405.007 310.554 406.94C309.474 408.86 307.954 410.353 305.994 411.42C304.048 412.473 301.768 413 299.154 413H291.034V387.28ZM295.314 391.14V409.18H299.154C300.888 409.18 302.381 408.787 303.634 408C304.901 407.213 305.874 406.14 306.554 404.78C307.248 403.42 307.594 401.88 307.594 400.16C307.594 398.4 307.248 396.847 306.554 395.5C305.874 394.14 304.901 393.073 303.634 392.3C302.381 391.527 300.888 391.14 299.154 391.14H295.314ZM317.782 387.28H322.062V403.4C322.062 405.6 322.615 407.187 323.722 408.16C324.842 409.133 326.282 409.62 328.042 409.62C329.802 409.62 331.235 409.133 332.342 408.16C333.449 407.187 334.002 405.6 334.002 403.4V387.28H338.282V403.4C338.282 405.56 337.869 407.4 337.042 408.92C336.229 410.427 335.055 411.573 333.522 412.36C331.989 413.147 330.162 413.54 328.042 413.54C325.909 413.54 324.075 413.147 322.542 412.36C321.022 411.573 319.849 410.427 319.022 408.92C318.195 407.4 317.782 405.56 317.782 403.4V387.28ZM354.649 413.54C352.396 413.54 350.436 412.993 348.769 411.9C347.103 410.807 345.809 409.253 344.889 407.24C343.983 405.227 343.529 402.827 343.529 400.04C343.529 397.147 344.009 394.72 344.969 392.76C345.929 390.787 347.249 389.3 348.929 388.3C350.609 387.287 352.516 386.78 354.649 386.78C357.583 386.78 359.889 387.5 361.569 388.94C363.263 390.367 364.363 392.22 364.869 394.5L360.289 395.36C359.849 393.947 359.143 392.807 358.169 391.94C357.209 391.073 356.036 390.64 354.649 390.64C353.449 390.64 352.356 390.993 351.369 391.7C350.383 392.393 349.596 393.44 349.009 394.84C348.436 396.227 348.149 397.96 348.149 400.04C348.149 401.987 348.396 403.68 348.889 405.12C349.396 406.547 350.129 407.653 351.089 408.44C352.063 409.227 353.249 409.62 354.649 409.62C356.423 409.62 357.803 409.147 358.789 408.2C359.789 407.253 360.289 406.04 360.289 404.56H364.889C364.889 406.453 364.469 408.067 363.629 409.4C362.803 410.733 361.623 411.76 360.089 412.48C358.569 413.187 356.756 413.54 354.649 413.54ZM366.967 390.96V387.28H387.427V390.96H378.367L379.327 389.98V413H375.047V389.98L376.007 390.96H366.967ZM401.425 387.28H407.565L415.245 403.56H414.865L422.545 387.28H428.485V413H424.165V392.1H424.845L416.445 410.08H413.645L405.285 392.2H405.705V413H401.425V387.28ZM433.233 413L442.013 387.28H447.353L455.832 413H451.333L449.433 407.16H439.693L437.773 413H433.233ZM440.793 403.92H448.413L444.613 392.4L440.793 403.92ZM460.506 387.28H465.266L477.326 406.38H476.986V387.28H481.266V413H476.846L464.106 392.88H464.786V413H460.506V387.28ZM486.006 413L494.786 387.28H500.126L508.606 413H504.106L502.206 407.16H492.466L490.546 413H486.006ZM493.566 403.92H501.186L497.386 392.4L493.566 403.92ZM522.659 413.54C520.566 413.54 518.672 412.993 516.979 411.9C515.299 410.793 513.959 409.253 512.959 407.28C511.959 405.293 511.459 402.973 511.459 400.32C511.459 398.187 511.766 396.28 512.379 394.6C513.006 392.92 513.872 391.5 514.979 390.34C516.086 389.18 517.372 388.3 518.839 387.7C520.319 387.087 521.912 386.78 523.619 386.78C525.912 386.78 527.859 387.273 529.459 388.26C531.059 389.247 532.339 390.8 533.299 392.92L528.979 394.02C528.246 392.913 527.412 392.08 526.479 391.52C525.559 390.947 524.532 390.66 523.399 390.66C522.066 390.66 520.839 391.053 519.719 391.84C518.612 392.613 517.726 393.72 517.059 395.16C516.392 396.6 516.059 398.32 516.059 400.32C516.059 402.16 516.346 403.78 516.919 405.18C517.492 406.567 518.299 407.653 519.339 408.44C520.379 409.227 521.599 409.62 522.999 409.62C524.146 409.62 525.172 409.367 526.079 408.86C526.986 408.34 527.699 407.587 528.219 406.6C528.752 405.6 529.019 404.387 529.019 402.96H530.039C530.039 405.107 529.779 406.973 529.259 408.56C528.752 410.147 527.952 411.373 526.859 412.24C525.779 413.107 524.379 413.54 522.659 413.54ZM529.659 413L529.019 407.22V402.82L523.039 402.68V399.92H533.139V413H529.659ZM540.018 413V387.28H556.378V390.96H544.298V398.24H555.658V401.94H544.298V409.26H556.378V413H540.018ZM563.222 387.28H569.362L577.042 403.56H576.662L584.342 387.28H590.282V413H585.962V392.1H586.642L578.242 410.08H575.442L567.082 392.2H567.502V413H563.222V387.28ZM597.869 413V387.28H614.229V390.96H602.149V398.24H613.509V401.94H602.149V409.26H614.229V413H597.869ZM621.013 387.28H625.773L637.833 406.38H637.493V387.28H641.773V413H637.353L624.613 392.88H625.293V413H621.013V387.28ZM645.834 390.96V387.28H666.294V390.96H657.234L658.194 389.98V413H653.914V389.98L654.874 390.96H645.834Z" fill="black"/>
<path d="M366.325 60.9648C348.492 62.8332 334.767 69.5708 325.499 81.0409C310.276 99.8797 311.486 126.288 312.201 133.846C324.774 117.64 338.715 112.856 346.61 111.465C347.081 103.076 351.461 83.7466 366.325 60.9648Z" fill="#0095AF"/>
<path d="M403.002 167.331C401.703 175.213 397.057 189.314 380.783 202.033C381.013 202.035 381.257 202.036 381.516 202.036C397.035 202.036 446.637 197.73 453.419 144.083C432.94 158.445 412.298 165.415 403.002 167.331Z" fill="#0095AF"/>
<path d="M365.747 155.088C356.181 161.964 348.253 166.746 346.071 167.09C345.967 167.106 345.868 167.114 345.778 167.114C345.061 167.114 344.53 166.645 344.424 165.917C344.095 163.66 348.98 155.333 356.258 145.335C350.137 138.902 342.137 130.198 338.886 125.363C333.679 128.41 325.927 134.672 323.99 145.634C325.194 146.11 328.61 147.01 334.198 144.977C334.529 144.858 334.9 144.952 335.134 145.218C335.366 145.483 335.412 145.864 335.248 146.177C335.093 146.474 319.989 175.61 323.339 189.29C327.642 189.012 351.489 186.936 366.91 174.598C367.231 174.342 367.69 174.349 368.001 174.619C368.313 174.888 368.389 175.341 368.182 175.695C368.138 175.773 363.884 183.21 366.223 189.216C369.137 188.618 381.219 185.602 387.835 175.798C383.883 172.836 374.545 163.937 365.747 155.088Z" fill="#FDBD30"/>
<path d="M396.718 167.209C393.425 164.984 384.965 156.718 375.929 147.424C372.947 149.771 369.987 152.006 367.148 154.074C378.156 165.139 388.107 174.371 389.98 175.174C390.116 175.232 390.251 175.261 390.396 175.261C392.243 175.261 394.636 171.536 396.718 167.209Z" fill="#F05B6C"/>
<path d="M357.281 143.938C359.404 141.064 361.709 138.074 364.132 135.064C355.813 126.193 348.818 118.4 347.21 116.114C343.713 118.205 340.129 120.614 339.099 122.189C339.261 123.718 345.008 131.039 357.281 143.938Z" fill="#F05B6C"/>
<path d="M477.451 120.248C493.405 101.727 501.055 73.4198 504.472 55.7089C471.01 41.5422 459.198 18.2294 455.092 5.04248C431.458 9.51408 404.482 19.1067 387.143 37.4465C351.62 75.0193 346.851 111.385 348.449 114.9C349.259 116.682 356.452 124.664 365.144 133.815C377.33 118.855 392.197 103.798 401.887 100.907C402.412 100.75 402.952 100.671 403.491 100.671C406.791 100.671 409.616 103.542 409.92 107.205C410.71 116.68 393.915 133.101 377.275 146.358C387.425 156.666 396.709 165.619 398.238 166.128C398.279 166.143 398.449 166.189 398.88 166.189C405.494 166.189 448.652 153.682 477.451 120.248ZM405.278 63.6199C407 55.9606 412.249 45.5056 427.473 39.193C431.732 37.426 436.041 36.5305 440.278 36.5305C451.91 36.5305 462.641 43.3103 468.981 54.6664C475.661 66.6321 475.711 80.7168 469.113 91.4224C460.132 105.991 448.992 109.049 441.229 109.049C431.53 109.049 421.345 104.192 413.984 96.0569C406.2 87.4509 402.783 74.7197 405.278 63.6199Z" fill="#FFE473"/>
<path d="M441.231 107.34C448.558 107.34 459.092 104.423 467.658 90.5255C473.933 80.3462 473.868 66.9257 467.488 55.4989C461.455 44.693 451.282 38.2402 440.278 38.2402C436.267 38.2402 432.178 39.0924 428.127 40.7717C413.579 46.8041 408.578 56.7316 406.945 63.9966C404.568 74.5713 407.829 86.7056 415.252 94.9117C422.295 102.694 432.006 107.34 441.231 107.34ZM415.439 66.2558C416.653 60.858 420.348 53.4904 431.062 49.0484C434.063 47.8032 437.099 47.1732 440.086 47.1732C448.288 47.1732 455.851 51.9478 460.316 59.9454C465.017 68.3669 465.05 78.2841 460.402 85.8249C454.08 96.0805 446.225 98.2337 440.749 98.2337C433.918 98.2337 426.747 94.8171 421.569 89.0934C416.088 83.0348 413.682 74.0711 415.439 66.2558Z" fill="#F05B6C"/>
<path d="M441.231 109.048C448.993 109.048 460.132 105.99 469.114 91.4212C475.713 80.7155 475.662 66.6309 468.982 54.6652C462.642 43.309 451.912 36.5293 440.279 36.5293C436.041 36.5293 431.733 37.4248 427.474 39.1918C412.249 45.5044 407 55.9606 405.279 63.6187C402.784 74.7185 406.202 87.4497 413.986 96.0546C421.346 104.191 431.531 109.048 441.231 109.048ZM406.944 63.9946C408.578 56.7295 413.58 46.802 428.127 40.7696C432.178 39.0904 436.267 38.2382 440.278 38.2382C451.282 38.2382 461.455 44.691 467.488 55.4969C473.868 66.9237 473.932 80.3453 467.658 90.5235C459.091 104.42 448.557 107.338 441.231 107.338C432.006 107.338 422.295 102.692 415.253 94.9085C407.829 86.7035 404.568 74.5692 406.944 63.9946Z" fill="#2C2C3A"/>
<path d="M440.749 96.5244C445.79 96.5244 453.039 94.5125 458.947 84.9279C463.271 77.9135 463.224 68.6604 458.824 60.779C454.666 53.3293 447.661 48.8828 440.087 48.8828C437.325 48.8828 434.509 49.4707 431.717 50.627C421.681 54.7887 418.232 61.6266 417.107 66.6314C415.468 73.9204 417.717 82.2882 422.836 87.9469C427.696 93.3174 434.393 96.5244 440.749 96.5244Z" fill="#C0E6F1"/>
<path d="M440.748 98.2334C446.225 98.2334 454.08 96.0802 460.402 85.8246C465.05 78.2838 465.017 68.3677 460.315 59.9451C455.851 51.9475 448.288 47.1729 440.085 47.1729C437.098 47.1729 434.062 47.804 431.061 49.0481C420.348 53.4889 416.653 60.8565 415.439 66.2555C413.682 74.0697 416.088 83.0345 421.568 89.092C426.747 94.8168 433.917 98.2334 440.748 98.2334ZM417.107 66.6303C418.232 61.6255 421.68 54.7877 431.716 50.626C434.509 49.4685 437.325 48.8817 440.087 48.8817C447.66 48.8817 454.666 53.3283 458.824 60.7779C463.224 68.6593 463.272 77.9124 458.947 84.9268C453.039 94.5114 445.79 96.5234 440.748 96.5234C434.393 96.5234 427.696 93.3175 422.836 87.9459C417.717 82.2883 415.467 73.9204 417.107 66.6303Z" fill="#2C2C3A"/>
<path d="M456.779 4.72089C460.835 17.6048 472.383 40.153 504.791 53.9962C509.651 27.6929 508.748 6.97205 505.939 4.16377C504.722 2.94704 498.819 1.71777 488.379 1.71777C478.729 1.71777 467.545 2.78186 456.779 4.72089Z" fill="#F87666"/>
<path d="M507.468 3.33806C507.364 3.19338 507.256 3.06578 507.146 2.95527C505.296 1.10511 498.26 0 488.325 0C484.888 0 480.983 0.146971 476.752 0.462547C476.559 0.476218 476.368 0.492169 476.175 0.50698C475.136 0.587867 474.079 0.679005 473.003 0.781538C472.698 0.81002 472.394 0.836237 472.087 0.866997C470.944 0.980923 469.784 1.1051 468.604 1.24523C467.871 1.33068 467.137 1.42749 466.403 1.52205C465.979 1.57674 465.559 1.62916 465.132 1.68727C464.206 1.81258 463.282 1.94473 462.356 2.08372C462.217 2.10423 462.077 2.12587 461.938 2.14752C459.791 2.47221 457.647 2.82083 455.524 3.21387C455.501 3.21843 455.483 3.23439 455.46 3.24009C431.375 7.71738 403.682 17.466 385.9 36.273C378.534 44.0644 372.502 51.7635 367.55 59.1345C348.563 60.8377 333.968 67.835 324.16 79.9784C305.841 102.659 310.699 135.867 310.75 136.2C310.802 136.542 311.055 136.817 311.391 136.899C311.458 136.916 311.527 136.923 311.594 136.923C311.862 136.923 312.119 136.797 312.283 136.573C324.688 119.659 338.653 114.66 346.572 113.204C346.578 113.674 346.598 114.102 346.637 114.454C342.937 116.643 338.765 119.418 337.571 121.407C337.341 121.79 337.324 122.27 337.519 122.873C337.615 123.169 337.774 123.518 337.988 123.913C332.379 127.209 324.04 134.012 322.196 145.997C322.145 146.332 322.295 146.666 322.582 146.848C322.737 146.948 326.166 149.052 332.805 147.216C329.404 154.096 318.209 178.202 321.876 190.428C321.988 190.8 322.363 191.073 322.727 191.035C322.99 191.024 347.884 189.941 365.26 177.949C364.055 181.107 362.846 186.136 364.935 190.548C365.078 190.85 365.381 191.037 365.707 191.037C365.75 191.037 365.793 191.034 365.837 191.027C366.017 190.999 381.318 188.512 389.26 176.723C389.273 176.729 389.292 176.74 389.305 176.746C389.653 176.895 390.02 176.971 390.394 176.971C393.109 176.971 395.967 172.663 398.274 167.866C398.456 167.886 398.652 167.899 398.879 167.9H398.88C399.436 167.9 400.241 167.814 401.225 167.658C399.805 175.61 394.846 189.647 377.833 202.124C377.544 202.336 377.417 202.706 377.517 203.051C377.616 203.396 377.921 203.642 378.278 203.666C378.326 203.669 379.485 203.748 381.514 203.748C388.379 203.748 406.114 202.804 422.475 194.062C441.671 183.805 452.696 166.555 455.298 142.749C463.439 136.853 471.497 129.779 478.745 121.365C498.973 97.883 507.91 56.7557 509.635 29.557C510.512 16.6389 509.814 6.46647 507.468 3.33806ZM381.515 202.037C381.255 202.037 381.012 202.035 380.781 202.033C397.056 189.314 401.703 175.214 403 167.331C412.297 165.415 432.939 158.445 453.416 144.083C446.635 197.73 397.034 202.037 381.515 202.037ZM398.88 166.189C398.449 166.189 398.28 166.143 398.238 166.128C396.709 165.619 387.426 156.665 377.275 146.357C393.915 133.101 410.71 116.68 409.92 107.204C409.615 103.541 406.791 100.671 403.491 100.671C402.951 100.671 402.413 100.749 401.887 100.907C392.197 103.797 377.331 118.853 365.144 133.815C356.454 124.664 349.259 116.683 348.449 114.9C346.851 111.384 351.62 75.0192 387.143 37.4464C404.483 19.1066 431.458 9.51396 455.092 5.04236C459.198 18.2293 471.01 41.542 504.472 55.7087C501.055 73.4197 493.405 101.727 477.451 120.248C448.652 153.682 405.494 166.189 398.88 166.189ZM389.98 175.174C388.107 174.371 378.155 165.139 367.148 154.074C369.987 152.007 372.947 149.771 375.929 147.424C384.965 156.718 393.425 164.983 396.717 167.209C394.636 171.536 392.242 175.261 390.396 175.261C390.252 175.261 390.116 175.232 389.98 175.174ZM366.223 189.215C363.883 183.209 368.138 175.772 368.182 175.695C368.39 175.34 368.313 174.887 368.001 174.618C367.69 174.349 367.231 174.341 366.91 174.597C351.489 186.935 327.642 189.01 323.339 189.289C319.989 175.609 335.091 146.474 335.247 146.176C335.411 145.864 335.366 145.484 335.133 145.217C334.9 144.952 334.529 144.857 334.198 144.977C328.61 147.009 325.193 146.109 323.99 145.633C325.927 134.671 333.677 128.41 338.886 125.362C342.136 130.196 350.136 138.901 356.258 145.334C348.98 155.331 344.095 163.659 344.424 165.916C344.53 166.644 345.062 167.114 345.778 167.114C345.868 167.114 345.967 167.106 346.07 167.09C348.253 166.746 356.182 161.962 365.747 155.088C374.545 163.937 383.882 172.836 387.835 175.797C381.219 185.602 369.137 188.617 366.223 189.215ZM339.099 122.189C340.129 120.614 343.712 118.204 347.21 116.115C348.818 118.4 355.813 126.194 364.132 135.064C361.71 138.074 359.404 141.064 357.281 143.939C345.009 131.039 339.261 123.718 339.099 122.189ZM402.376 102.545C402.743 102.436 403.118 102.38 403.491 102.38C405.869 102.38 407.989 104.608 408.217 107.347C409.553 123.383 353.701 163.258 346.101 165.335C346.63 158.848 384.114 107.992 402.376 102.545ZM312.2 133.845C311.485 126.287 310.275 99.8802 325.498 81.0402C334.765 69.5701 348.491 62.8337 366.324 60.9642C351.46 83.746 347.08 103.076 346.609 111.464C338.714 112.855 324.773 117.639 312.2 133.845ZM504.79 53.9964C472.381 40.1533 460.834 17.605 456.778 4.72111C467.545 2.78323 478.728 1.718 488.377 1.718C498.817 1.718 504.719 2.94613 505.937 4.164C508.747 6.97114 509.65 27.6932 504.79 53.9964Z" fill="#2C2C3A"/>
<path d="M346.101 165.335C353.701 163.259 409.555 123.384 408.217 107.347C407.989 104.608 405.869 102.379 403.492 102.379C403.118 102.379 402.742 102.435 402.376 102.545C384.114 107.991 346.63 158.848 346.101 165.335Z" fill="#0095AF"/>
<path d="M458.947 84.9272C462.401 79.3254 463.057 72.2962 460.943 65.6782C456.39 73.8376 450.476 79.9452 438.799 82.0767C434.884 82.791 424.998 84.1115 418.884 81.9058C419.896 84.1092 421.222 86.1621 422.836 87.9451C427.696 93.3167 434.393 96.5226 440.749 96.5226C445.79 96.5237 453.039 94.5118 458.947 84.9272Z" fill="#92D7EF"/>
<path d="M486.291 45.8535C482.421 53.0947 478.111 60.0909 473.375 66.7772C474.986 75.4037 473.575 84.1851 469.114 91.4228C460.133 105.992 448.994 109.049 441.231 109.049C438.634 109.049 436.004 108.691 433.402 108.025C428.47 111.722 423.337 115.176 418.006 118.353C408.783 123.848 400.134 129.329 391.221 134.4C386.838 138.488 382.052 142.554 377.275 146.359C387.426 156.667 396.709 165.621 398.238 166.13C398.279 166.145 398.449 166.19 398.88 166.19C405.494 166.19 448.652 153.682 477.45 120.25C493.404 101.729 501.054 73.4214 504.471 55.7104C497.512 52.7631 491.502 49.4171 486.291 45.8535Z" fill="#FFE473"/>
<path d="M503.178 2.99609C499.361 17.3508 493.944 31.2384 487.089 44.3376C492.164 47.8249 498.015 51.1025 504.79 53.9963C509.65 27.693 508.747 6.97211 505.938 4.16383C505.535 3.75939 504.605 3.3561 503.178 2.99609Z" fill="#F87666"/>
<path d="M346.61 111.465C346.822 107.683 347.843 101.662 350.248 94.1177C347.733 94.9539 345.245 95.8049 342.796 96.558C330.045 100.482 320.73 107.33 312.309 116.173C311.513 124.097 311.899 130.655 312.201 133.846C324.773 117.639 338.714 112.855 346.61 111.465Z" fill="#0095AF"/>
<path d="M415.868 163.566C410.581 165.457 406.141 166.684 403 167.331C401.702 175.214 397.056 189.314 380.781 202.033C381.012 202.035 381.255 202.036 381.515 202.036C385.934 202.036 393.118 201.686 401.288 199.947C409.226 189.047 414.306 174.768 415.868 163.566Z" fill="#0095AF"/>
<path d="M367.687 133.748L367.414 133.761C367.385 133.798 367.355 133.834 367.326 133.869C367.445 133.825 367.565 133.782 367.687 133.748Z" fill="#0095AF"/>
<path d="M367.87 146.401C363.181 146.005 362.344 142.138 363.389 138.761C353.676 151.105 346.332 162.49 346.1 165.336C349.91 164.294 365.846 153.755 380.624 141.481C376.303 143.851 371.149 146.679 367.87 146.401Z" fill="#0095AF"/>
<path d="M435.648 56.3258C432.93 54.7958 430.076 56.115 427.852 57.9344C426.269 59.2298 424.268 61.8615 424.93 64.0329C425.159 64.7826 425.915 65.228 426.682 65.0275C428.191 64.6333 429.403 63.2263 430.855 62.586C432.464 61.8751 434.201 61.9048 435.649 60.8225C437.143 59.7048 437.503 57.3694 435.648 56.3258Z" fill="#F1F8F4"/>
<path d="M446.104 56.0438C445.372 55.7749 444.679 55.4491 443.885 55.4468C443.061 55.4445 442.306 55.8353 441.588 56.1873C440.659 56.6441 440.659 58.1901 441.588 58.647C442.306 58.999 443.06 59.3898 443.885 59.3875C444.678 59.3852 445.372 59.0594 446.104 58.7905C447.458 58.2938 447.458 56.5405 446.104 56.0438Z" fill="#F1F8F4"/>
<path d="M420.377 92.7524C418.197 92.7524 418.197 96.1349 420.377 96.1349C422.558 96.1349 422.558 92.7524 420.377 92.7524Z" fill="#2C2C3A"/>
<path d="M412.688 79.0806C410.507 79.0806 410.507 82.463 412.688 82.463C414.868 82.463 414.868 79.0806 412.688 79.0806Z" fill="#2C2C3A"/>
<path d="M411.548 60.5669C409.368 60.5669 409.368 63.9494 411.548 63.9494C413.729 63.9494 413.729 60.5669 411.548 60.5669Z" fill="#2C2C3A"/>
<path d="M421.802 47.4663C419.621 47.4663 419.621 50.8488 421.802 50.8488C423.982 50.8488 423.982 47.4663 421.802 47.4663Z" fill="#2C2C3A"/>
<path d="M436.327 41.2007C434.147 41.2007 434.147 44.5831 436.327 44.5831C438.508 44.5831 438.508 41.2007 436.327 41.2007Z" fill="#2C2C3A"/>
<path d="M453.701 44.334C451.521 44.334 451.521 47.7164 453.701 47.7164C455.882 47.7164 455.882 44.334 453.701 44.334Z" fill="#2C2C3A"/>
<path d="M463.954 55.7261C461.774 55.7261 461.774 59.1085 463.954 59.1085C466.135 59.1085 466.135 55.7261 463.954 55.7261Z" fill="#2C2C3A"/>
<path d="M467.087 74.5239C464.907 74.5239 464.907 77.9064 467.087 77.9064C469.268 77.9064 469.268 74.5239 467.087 74.5239Z" fill="#2C2C3A"/>
<path d="M461.391 89.9043C459.21 89.9043 459.21 93.2868 461.391 93.2868C463.572 93.2868 463.572 89.9043 461.391 89.9043Z" fill="#2C2C3A"/>
<path d="M448.005 100.175C445.824 100.175 445.824 103.558 448.005 103.558C450.185 103.557 450.185 100.175 448.005 100.175Z" fill="#2C2C3A"/>
<path d="M433.479 99.606C431.299 99.606 431.299 102.988 433.479 102.988C435.66 102.987 435.66 99.606 433.479 99.606Z" fill="#2C2C3A"/>
<path d="M386.319 174.59C381.809 170.852 373.57 162.956 365.747 155.087C356.181 161.963 348.253 166.745 346.07 167.089C345.967 167.105 345.868 167.113 345.778 167.113C345.061 167.113 344.53 166.644 344.424 165.916C344.095 163.659 348.98 155.332 356.258 145.334C351.028 139.838 344.439 132.694 340.6 127.712C337.521 129.318 333.709 137.408 332.633 140.312C336.343 140.979 339.987 140.7 343.717 140.893C343.91 147.82 339.039 155.535 337.534 162.283C336.354 167.577 335.279 172.874 334.164 178.172C346.44 178.785 360.074 173.514 370.776 168.001C371.519 172.973 372.682 178.021 372.519 183.089C376.851 180.95 381.774 178.074 386.319 174.59Z" fill="#F79731"/>
<path d="M365.746 155.087C356.181 161.963 348.253 166.745 346.07 167.09C345.967 167.105 345.867 167.113 345.777 167.113C345.664 167.113 345.563 167.083 345.46 167.06C345.461 168.013 345.469 168.959 345.485 169.89C351.247 170.387 358.379 167.96 363.944 166.488C366.275 165.872 368.794 165.505 371.035 164.784C372.452 168.859 376.118 172.404 377.137 176.444C379.593 176.114 381.664 173.712 383.596 172.238C378.905 168.057 372.187 161.565 365.746 155.087Z" fill="#F37530"/>
<path d="M345.525 162.227C347.335 158.366 351.221 152.251 356.257 145.335C351.982 140.843 346.821 135.265 342.974 130.651C341.773 132.694 340.329 134.698 339.757 137.049C341.615 137.914 346.291 138.111 347.516 139.373C349.289 141.202 346.963 147.215 346.604 149.532C345.978 153.581 345.652 157.928 345.525 162.227Z" fill="#F37530"/>
<path d="M433.599 16.0843C428.527 16.8932 424.181 19.9521 419.755 22.4084C415.544 24.7473 410.764 26.9347 407.443 30.4846C406.938 31.0246 407.252 32.1046 408.088 32.042C412.899 31.6831 417.512 29.4034 421.944 27.6023C426.876 25.5983 432.128 24.058 436.13 20.4352C438.257 18.511 435.943 15.7095 433.599 16.0843Z" fill="#FFF7D5"/>
<path d="M449.713 12.6567C447.659 12.4881 444.722 12.8447 443.34 14.5878C442.969 15.056 442.949 15.7624 443.534 16.0905C445.614 17.2594 448.496 16.4072 450.454 15.3933C451.854 14.6698 451.061 12.7684 449.713 12.6567Z" fill="#FFF7D5"/>
<path d="M482.848 7.0631C478.019 5.95004 470.452 6.04004 466.274 9.07162C465.601 9.56036 465.53 10.8283 466.529 11.0243C468.805 11.4697 471.128 11.0095 473.433 10.915C476.427 10.7919 479.388 10.8648 482.374 10.5606C484.253 10.3681 484.941 7.54501 482.848 7.0631Z" fill="#FFA79D"/>
<path d="M316.295 155.28C312.874 158.826 309.374 162.246 306.389 166.169C305.831 166.903 306.992 167.682 307.613 167.113C311.192 163.829 314.228 160.058 317.397 156.381C318.044 155.63 317 154.55 316.295 155.28Z" fill="#484859"/>
<path d="M313.799 170.999C305.238 180.071 296.327 188.924 288.291 198.467C287.378 199.55 288.813 201.047 289.864 200.04C298.869 191.41 307.125 181.949 315.624 172.824C316.756 171.61 314.944 169.786 313.799 170.999Z" fill="#484859"/>
<path d="M312.824 195.664C305.426 202.479 297.764 209.1 290.715 216.275C289.836 217.17 291.135 218.408 292.068 217.629C299.789 211.174 307.008 204.067 314.399 197.237C315.454 196.261 313.878 194.693 312.824 195.664Z" fill="#484859"/>
<path d="M333.386 194.576C330.902 197.222 328.344 199.807 326.059 202.629C325.368 203.484 326.455 204.639 327.286 203.856C329.929 201.373 332.316 198.63 334.77 195.96C335.622 195.033 334.253 193.652 333.386 194.576Z" fill="#484859"/>
<path d="M356.497 190.914C351.581 196.109 346.143 201.111 341.79 206.789C340.976 207.852 342.642 208.905 343.538 208.138C348.887 203.551 353.512 197.89 358.354 192.771C359.517 191.542 357.664 189.682 356.497 190.914Z" fill="#484859"/>
<path d="M369.595 196.912C367.727 198.203 365.992 199.638 364.382 201.241C362.908 202.708 361.258 204.424 360.585 206.429C360.294 207.295 361.431 207.832 362.035 207.273C363.476 205.942 364.476 204.101 365.742 202.601C367.156 200.925 368.774 199.431 370.485 198.065C371.136 197.545 370.277 196.44 369.595 196.912Z" fill="#484859"/>
</svg>
